<svg fill="none" height="38" viewBox="0 0 38 38" width="38" xmlns="http://www.w3.org/2000/svg"><rect fill="#efeef3" height="38" rx="5" width="38"/><path d="m15.6895 24.7016c0 .0807-.0927.1452-.2097.1452-.133.0121-.2258-.0524-.2258-.1452 0-.0806.0928-.1451.2097-.1451.121-.0121.2258.0524.2258.1451zm-1.254-.1814c-.0282.0806.0524.1733.1734.1975.1048.0404.2258 0 .25-.0806s-.0524-.1734-.1734-.2097c-.1049-.0282-.2218.0121-.25.0928zm1.7822-.0686c-.1169.0282-.1975.1049-.1854.1976.0121.0806.1169.1331.2379.1048.1169-.0282.1975-.1048.1854-.1855-.0121-.0766-.1209-.129-.2379-.1169zm2.6533-15.4516c-5.5928 0-9.871 4.246-9.871 9.8387 0 4.4718 2.8145 8.2984 6.8347 9.6452.5161.0927.6976-.2258.6976-.4879 0-.25-.0121-1.6291-.0121-2.4758 0 0-2.8226.6048-3.4154-1.2017 0 0-.4596-1.1733-1.1209-1.4758 0 0-.9234-.633.0645-.6209 0 0 1.004.0806 1.5564 1.0403.8831 1.5564 2.3629 1.1089 2.9396.8427.0927-.6451.3548-1.0927.6451-1.3588-2.254-.25-4.5282-.5766-4.5282-4.4557 0-1.1088.3064-1.6653.9516-2.375-.1048-.2621-.4476-1.3427.1048-2.7379.8428-.2621 2.7823 1.0887 2.7823 1.0887.8065-.2258 1.6734-.3427 2.5323-.3427.8588 0 1.7258.1169 2.5322.3427 0 0 1.9395-1.3548 2.7823-1.0887.5524 1.3992.2097 2.4758.1048 2.7379.6452.7137 1.0403 1.2702 1.0403 2.375 0 3.8912-2.375 4.2016-4.629 4.4557.371.3185.6855.9234.6855 1.8709 0 1.3589-.0121 3.0404-.0121 3.371 0 .2621.1855.5806.6976.4879 4.0322-1.3387 6.7661-5.1653 6.7661-9.6371 0-5.5927-4.5363-9.8387-10.129-9.8387zm-5.9516 13.9073c-.0525.0403-.0404.133.0282.2096.0645.0646.1572.0928.2097.0404.0524-.0404.0403-.1331-.0283-.2097-.0645-.0645-.1572-.0928-.2096-.0403zm-.4355-.3267c-.0283.0525.0121.117.0927.1573.0645.0403.1452.0282.1734-.0282.0282-.0524-.0121-.117-.0927-.1573-.0807-.0242-.1452-.0121-.1734.0282zm1.3064 1.4355c-.0645.0524-.0403.1734.0524.25.0928.0928.2097.1049.2621.0404.0525-.0525.0283-.1734-.0524-.25-.0887-.0928-.2097-.1049-.2621-.0404zm-.4597-.5927c-.0645.0403-.0645.1451 0 .2379.0646.0927.1734.1331.2259.0927.0645-.0524.0645-.1572 0-.25-.0565-.0927-.1613-.133-.2259-.0806z" fill="#0d0d0d"/></svg>