<svg width="5" height="14" viewBox="0 0 5 14" fill="none" xmlns="http://www.w3.org/2000/svg">
<path d="M4.31886 13.7054H4.31739H4.309H4.30062H4.29223H4.28384H4.27546H4.26707H4.25869H4.2503H4.24191H4.23353H4.22515H4.21676H4.20838H4.19999H4.19161H4.18323H4.17484H4.16646H4.15808H4.1497H4.14132H4.13294H4.12455H4.11617H4.10779H4.09941H4.09103H4.08265H4.07427H4.0659H4.05752H4.04914H4.04076H4.03238H4.024H4.01563H4.00725H3.99887H3.9905H3.98212H3.97374H3.96537H3.95699H3.94862H3.94024H3.93187H3.92349H3.91512H3.90675H3.89837H3.89H3.88163H3.87325H3.86488H3.85651H3.84814H3.83976H3.83139H3.82302H3.81465H3.80628H3.79791H3.78954H3.78117H3.7728H3.76443H3.75606H3.74769H3.73932H3.73095H3.72258H3.71421H3.70585H3.69748H3.68911H3.68074H3.67237H3.66401H3.65564H3.64727H3.63891H3.63054H3.62218H3.61381H3.60544H3.59708H3.58871H3.58035H3.57198H3.56362H3.55526H3.54689H3.53853H3.53016H3.5218H3.51344H3.50507H3.49671H3.48835H3.47999H3.47162H3.46326H3.4549H3.44654H3.43818H3.42981H3.42145H3.41309H3.40473H3.39637H3.38801H3.37965H3.37129H3.36293H3.35457H3.34621H3.33785H3.32949H3.32113H3.31277H3.30441H3.29606H3.2877H3.27934H3.27098H3.26262H3.25427H3.24591H3.23755H3.22919H3.22084H3.21248H3.20412H3.19577H3.18741H3.17905H3.1707H3.16234H3.15398H3.14563H3.13727H3.12892H3.12056H3.11221H3.10385H3.0955H3.08714H3.07879H3.07043H3.06208H3.05372H3.04537H3.03702H3.02866H3.02031H3.01195H3.0036H2.99525H2.98689H2.97854H2.97019H2.96184H2.95348H2.94513H2.93678H2.92842H2.92007H2.91172H2.90337H2.89502H2.88666H2.87831H2.86996H2.86161H2.85326H2.84491H2.83655H2.8282H2.81985H2.8115H2.80315H2.7948H2.78645H2.7781H2.76975H2.7614H2.75305H2.7447H2.73635H2.728H2.71965H2.7113H2.70295H2.6946H2.68625H2.6779H2.66955H2.6612H2.65285H2.6445H2.63615H2.6278H2.61945H2.6111H2.60275H2.5944H2.58605H2.57771H2.56936H2.56101H2.55266H2.54431H2.53596H2.52761H2.51926H2.51092H2.50257H2.49422H2.48587H2.47752H2.46917H2.46083H2.45248H2.44413H2.43578H2.42743H2.41909H2.41074H2.40239H2.39404H2.3857H2.37735H2.369H2.36065H2.3523H2.34396H2.33561H2.32726H2.31891H2.31057H2.30222H2.29387H2.28552H2.27718H2.26883H2.26048H2.25213H2.24379H2.23544H2.22709H2.21874H2.2104H2.20205H2.1937H2.18535H2.17701H2.16866H2.16031H2.15196H2.14362H2.13527H2.12692H2.11858H2.11023H2.10188H2.09353H2.08519H2.07684H2.06849H2.06014H2.0518H2.04345H2.0351H2.02675H2.01841H2.01006H2.00171H1.99336H1.98502H1.97667H1.96832H1.95997H1.95162H1.94328H1.93493H1.92658H1.91823H1.90988H1.90154H1.89319H1.88484H1.87649H1.86814H1.8598H1.85145H1.8431H1.83475H1.8264H1.81805H1.80971H1.80136H1.79301H1.78466H1.77631H1.76796H1.75961H1.75126H1.74292H1.73457H1.72622H1.71787H1.70952H1.70117H1.69282H1.68447H1.67612H1.66777H1.65942H1.65107H1.64272H1.63437H1.62602H1.61767H1.60932H1.60097H1.59262H1.58427H1.57592H1.56757H1.55922H1.55087H1.54252H1.53417H1.52582H1.51747H1.50912H1.50076H1.49241H1.48406H1.47571H1.46736H1.45901H1.45065H1.4423H1.43395H1.4256H1.41725H1.40889H1.40054H1.39219H1.38384H1.37548H1.36713H1.35878H1.35042H1.34207H1.33372H1.32536H1.31701H1.30866H1.3003H1.29195H1.28359H1.27524H1.26688H1.25853H1.25018H1.24182H1.23347H1.22511H1.21676H1.2084H1.20004H1.19169H1.18333H1.17498H1.16662H1.15826H1.14991H1.14155H1.13319H1.12484H1.11648H1.10812H1.09977H1.09141H1.08305H1.07469H1.06634H1.05798H1.04962H1.04126H1.0329H1.02454H1.01618H1.00782H0.999466H0.991106H0.982746H0.974387H0.966027H0.957666H0.949306H0.940946H0.932585H0.924224H0.915863H0.907502H0.89914H0.890779H0.882417H0.874055H0.865693H0.85733H0.848968H0.840605H0.832242H0.823879H0.815515H0.807152H0.798788H0.790424H0.78206H0.773696H0.765331H0.756966H0.748601H0.740236H0.731871H0.723505H0.715139H0.706773H0.698407H0.690041H0.681674H0.673307H0.66494H0.656573H0.648205H0.639837H0.631469H0.623101H0.614733H0.606364H0.597995H0.589626H0.581257H0.572887H0.564517H0.556147H0.547777H0.539406H0.531035H0.522664H0.514293H0.505922H0.49755H0.489178H0.480806H0.472433H0.46406H0.455687H0.447314H0.438941H0.430567H0.422193H0.413819H0.405444H0.397069H0.388694H0.380319H0.371944H0.363568H0.355192H0.346815H0.338439H0.330062H0.321685H0.313307H0.30493H0.296552H0.288173H0.279795H0.271416H0.263037H0.254658H0.246278H0.237898H0.229518H0.221138H0.212757H0.204376H0.195995H0.187613H0.179231H0.170849H0.162466H0.154084H0.1457H0.137317H0.128933H0.120549H0.112165H0.103781H0.0953957H0.0870106H0.0786251H0.0702393H0.0687704V13.6949V13.669V13.6432V13.6174V13.5916V13.5657V13.5399V13.5141V13.4882V13.4624V13.4366V13.4108V13.3849V13.3591V13.3333V13.3074V13.2816V13.2558V13.23V13.2041V13.1783V13.1525V13.1266V13.1008V13.075V13.0492V13.0233V12.9975V12.9717V12.9458V12.92V12.8942V12.8684V12.8425V12.8167V12.7909V12.7651V12.7392V12.7134V12.6876V12.6617V12.6359V12.6101V12.5843V12.5584V12.5326V12.5068V12.481V12.4551V12.4293V12.4035V12.3776V12.3518V12.326V12.3002V12.2743V12.2485V12.2227V12.1969V12.171V12.1452V12.1194V12.0935V12.0677V12.0419V12.0161V11.9902V11.9644V11.9386V11.9128V11.8869V11.8611V11.8353V11.8095V11.7836V11.7578V11.732V11.7062V11.6803V11.6545V11.6287V11.6028V11.577V11.5512V11.5254V11.4995V11.4737V11.4479V11.4221V11.3962V11.3704V11.3446V11.3188V11.2929V11.2671V11.2413V11.2155V11.1896V11.1638V11.138V11.1121V11.0863V11.0605V11.0347V11.0088V10.983V10.9572V10.9314V10.9055V10.8797V10.8539V10.8281V10.8022V10.7764V10.7506V10.7248V10.6989V10.6731V10.6473V10.6214V10.5956V10.5698V10.544V10.5181V10.4923V10.4665V10.4407V10.4148V10.389V10.3632V10.3374V10.3115V10.2857V10.2599V10.2341V10.2082V10.1824V10.1566V10.1307V10.1049V10.0791V10.0533V10.0274V10.0016V9.97579V9.94996V9.92414V9.89831V9.87249V9.84666V9.82083V9.795V9.76918V9.74335V9.71753V9.6917V9.66587V9.64005V9.61422V9.58839V9.56256V9.53674V9.51091V9.48508V9.45926V9.43343V9.4076V9.38178V9.35595V9.33012V9.3043V9.27847V9.25264V9.22681V9.20099V9.17516V9.14933V9.1235V9.09768V9.07185V9.04602V9.0202V8.99437V8.96854V8.94271V8.91689V8.89106V8.86523V8.8394V8.81357V8.78775V8.76192V8.73609V8.71026V8.68443V8.65861V8.63278V8.60695V8.58112V8.55529V8.52947V8.50364V8.47781V8.45198V8.42615V8.40033V8.3745V8.34867V8.32284V8.29701V8.27118V8.24535V8.21952V8.1937V8.16787V8.14204V8.11621V8.09038V8.06455V8.03872V8.01289V7.98706V7.96123V7.9354V7.90958V7.88375V7.85792V7.83209V7.80626V7.78043V7.7546V7.72877V7.70294V7.67711V7.65128V7.62545V7.59962V7.57379V7.54796V7.52213V7.4963V7.47047V7.44464V7.4188V7.39297V7.36714V7.34131V7.31548V7.28965V7.26382V7.23799V7.21216V7.18633V7.1605V7.13466V7.10883V7.083V7.05717V7.03134V7.00551V6.97967V6.95384V6.92801V6.90218V6.87635V6.85051V6.82468V6.79885V6.77302V6.74718V6.72135V6.69552V6.66969V6.64385V6.61802V6.59219V6.56635V6.54052V6.51469V6.48885V6.46302V6.43719V6.41135V6.38552V6.35969V6.33385V6.30802V6.28219V6.25635V6.23052V6.20468V6.17885V6.15301V6.12718V6.10134V6.07551V6.04967V6.02384V5.99801V5.97217V5.94633V5.9205V5.89466V5.86883V5.84299V5.81716V5.79132V5.76549V5.73965V5.71381V5.68798V5.66214V5.6363V5.61047V5.58463V5.55879V5.53296V5.50712V5.48128V5.45545V5.42961V5.40377V5.37794V5.3521V5.32626V5.30042V5.27458V5.24875V5.22291V5.19707V5.17123V5.14539V5.11955V5.09372V5.06788V5.04204V5.0162V4.99036V4.96452V4.93868V4.91284V4.887V4.86116V4.83532V4.80948V4.78364V4.7578V4.73196V4.70612V4.68028V4.65444V4.6286V4.60276V4.57692V4.55108V4.52524V4.4994V4.47355V4.44771V4.42187V4.39603V4.37019V4.34435V4.3185V4.29266V4.26682V4.24098V4.21513V4.18929V4.16345V4.1376V4.11176V4.08592V4.06007V4.03423V4.00839V3.98254V3.9567V3.93086V3.90501V3.87917V3.85332V3.82748V3.80163V3.77579V3.74994V3.7241V3.69825V3.67241V3.64656V3.62071V3.59487V3.56902V3.54318V3.51733V3.49148V3.46564V3.43979V3.41394V3.3881V3.36225V3.3364V3.31055V3.28471V3.25886V3.23301V3.20716V3.18131V3.15547V3.12962V3.10377V3.07792V3.05207V3.02622V3.00037V2.97452V2.94867V2.92282V2.89697V2.87112V2.84527V2.81942V2.79357V2.76772V2.74187V2.71602V2.69017V2.66432V2.63847V2.61261V2.58676V2.56091V2.53506V2.50921V2.48335V2.4575V2.43165V2.40579V2.37994V2.35409V2.32824V2.30238V2.27653V2.25067V2.22482V2.19897V2.17311V2.14726V2.1214V2.09555V2.06969V2.04384V2.01798V1.99213V1.96627V1.94041V1.91456V1.8887V1.86284V1.83699V1.81113V1.78527V1.75942V1.73356V1.7077V1.68184V1.65599V1.63013V1.60427V1.57841V1.55255V1.52669V1.50083V1.47498V1.44912V1.42326V1.3974V1.37154V1.34568V1.31982V1.29396V1.2681V1.24223V1.21637V1.19051V1.16465V1.13879V1.11293V1.08707V1.0612V1.03534V1.00948V0.983616V0.957753V0.93189V0.906027V0.880163V0.8543V0.828436V0.802572V0.776707V0.750843V0.724978V0.699113V0.673248V0.647383V0.621518V0.595652V0.569786V0.54392V0.518054V0.507491H0.0701462H0.0784858H0.0868255H0.095165H0.103505H0.111844H0.120184H0.128523H0.136862H0.145202H0.153541H0.161881H0.17022H0.178559H0.186898H0.195238H0.203577H0.211916H0.220255H0.228595H0.236934H0.245273H0.253612H0.261951H0.27029H0.278629H0.286968H0.295307H0.303646H0.311985H0.320324H0.328663H0.337002H0.345341H0.35368H0.362019H0.370358H0.378696H0.387035H0.395374H0.403713H0.412052H0.420391H0.42873H0.437068H0.445407H0.453746H0.462085H0.470424H0.478763H0.487101H0.49544H0.503779H0.512118H0.520457H0.528796H0.537135H0.545473H0.553812H0.562151H0.57049H0.578829H0.587168H0.595507H0.603846H0.612184H0.620523H0.628862H0.637201H0.64554H0.653879H0.662218H0.670557H0.678896H0.687235H0.695574H0.703913H0.712252H0.720592H0.728931H0.73727H0.745609H0.753948H0.762287H0.770627H0.778966H0.787305H0.795645H0.803984H0.812323H0.820663H0.829002H0.837341H0.845681H0.85402H0.86236H0.8707H0.879039H0.887379H0.895718H0.904058H0.912398H0.920738H0.929078H0.937417H0.945757H0.954097H0.962437H0.970777H0.979117H0.987457H0.995797H1.00414H1.01248H1.02082H1.02916H1.0375H1.04584H1.05418H1.06252H1.07086H1.0792H1.08754H1.09588H1.10422H1.11256H1.1209H1.12925H1.13759H1.14593H1.15427H1.16261H1.17095H1.17929H1.18763H1.19597H1.20432H1.21266H1.221H1.22934H1.23768H1.24602H1.25437H1.26271H1.27105H1.27939H1.28773H1.29608H1.30442H1.31276H1.3211H1.32944H1.33779H1.34613H1.35447H1.36281H1.37116H1.3795H1.38784H1.39619H1.40453H1.41287H1.42122H1.42956H1.4379H1.44625H1.45459H1.46293H1.47128H1.47962H1.48796H1.49631H1.50465H1.513H1.52134H1.52968H1.53803H1.54637H1.55472H1.56306H1.57141H1.57975H1.5881H1.59644H1.60479H1.61313H1.62148H1.62982H1.63817H1.64651H1.65486H1.6632H1.67155H1.6799H1.68824H1.69659H1.70493H1.71328H1.72163H1.72997H1.73832H1.74667H1.75501H1.76336H1.77171H1.78005H1.7884H1.79675H1.8051H1.81344H1.82179H1.83014H1.83849H1.84683H1.85518H1.86353H1.87188H1.88023H1.88858H1.89692H1.90527H1.91362H1.92197H1.93032H1.93867H1.94702H1.95537H1.96372H1.97207H1.98042H1.98877H1.99712H2.00547H2.01382H2.02217H2.03052H2.03887H2.04722H2.05557H2.06392H2.07228H2.08063H2.08898H2.09733H2.10568H2.11403H2.12239H2.13074H2.13909H2.14744H2.1558H2.16415H2.1725H2.18085H2.18921H2.19756H2.20591H2.21427H2.22262H2.23097H2.23933H2.24768H2.25604H2.26439H2.27275H2.2811H2.28946H2.29781H2.30617H2.31452H2.32288H2.33123H2.33959H2.34794H2.3563H2.36466H2.37301H2.38137H2.38973H2.39808H2.40644H2.4148H2.42316H2.43151H2.43987H2.44823H2.45659H2.46494H2.4733H2.48166H2.49002H2.49838H2.50674H2.5151H2.52346H2.53182H2.54018H2.54854H2.5569H2.56526H2.57362H2.58198H2.59034H2.5987H2.60706H2.61542H2.62378H2.63214H2.64051H2.64887H2.65723H2.66559H2.67395H2.68232H2.69068H2.69904H2.70741H2.71577H2.72413H2.7325H2.74086H2.74922H2.75759H2.76595H2.77432H2.78268H2.79105H2.79941H2.80778H2.81614H2.82451H2.83288H2.84124H2.84961H2.85798H2.86634H2.87471H2.88308H2.89144H2.89981H2.90818H2.91655H2.92491H2.93328H2.94165H2.95002H2.95839H2.96676H2.97513H2.9835H2.99187H3.00024H3.00861H3.01698H3.02535H3.03372H3.04209H3.05046H3.05883H3.06721H3.07558H3.08395H3.09232H3.10069H3.10907H3.11744H3.12581H3.13419H3.14256H3.15093H3.15931H3.16768H3.17606H3.18443H3.19281H3.20118H3.20956H3.21793H3.22631H3.23468H3.24306H3.25144H3.25981H3.26819H3.27657H3.28495H3.29332H3.3017H3.31008H3.31846H3.32684H3.33522H3.34359H3.35197H3.36035H3.36873H3.37711H3.38549H3.39387H3.40225H3.41064H3.41902H3.4274H3.43578H3.44416H3.45254H3.46093H3.46931H3.47769H3.48608H3.49446H3.50284H3.51123H3.51961H3.528H3.53638H3.54476H3.55315H3.56154H3.56992H3.57831H3.58669H3.59508H3.60347H3.61185H3.62024H3.62863H3.63702H3.6454H3.65379H3.66218H3.67057H3.67896H3.68735H3.69574H3.70413H3.71252H3.72091H3.7293H3.73769H3.74608H3.75447H3.76286H3.77126H3.77965H3.78804H3.79643H3.80483H3.81322H3.82161H3.83001H3.8384H3.8468H3.85519H3.86358H3.87198H3.88038H3.88877H3.89717H3.90556H3.91396H3.92236H3.93075H3.93915H3.94755H3.95595H3.96435H3.97274H3.98114H3.98954H3.99794H4.00634H4.01474H4.02314H4.03154H4.03994H4.04835H4.05675H4.06515H4.07355H4.08195H4.09036H4.09876H4.10716H4.11557H4.12397H4.13237H4.14078H4.14918H4.15759H4.16599H4.1744H4.18281H4.19121H4.19962H4.20803H4.21643H4.22484H4.23325H4.24166H4.25007H4.25847H4.26688H4.27529H4.2837H4.29211H4.30052H4.30893H4.31734H4.31886V0.517994V0.5438V0.569606V0.595412V0.621219V0.647025V0.672831V0.698638V0.724444V0.750251V0.776057V0.801864V0.82767V0.853477V0.879283V0.90509V0.930897V0.956703V0.98251V1.00832V1.03412V1.05993V1.08574V1.11154V1.13735V1.16316V1.18897V1.21477V1.24058V1.26639V1.29219V1.318V1.34381V1.36962V1.39542V1.42123V1.44704V1.47285V1.49865V1.52446V1.55027V1.57608V1.60189V1.62769V1.6535V1.67931V1.70512V1.73093V1.75673V1.78254V1.80835V1.83416V1.85997V1.88577V1.91158V1.93739V1.9632V1.98901V2.01482V2.04063V2.06644V2.09224V2.11805V2.14386V2.16967V2.19548V2.22129V2.2471V2.27291V2.29872V2.32453V2.35034V2.37615V2.40196V2.42777V2.45358V2.47939V2.5052V2.53101V2.55682V2.58263V2.60844V2.63425V2.66006V2.68587V2.71168V2.73749V2.7633V2.78911V2.81492V2.84073V2.86654V2.89235V2.91816V2.94398V2.96979V2.9956V3.02141V3.04722V3.07303V3.09884V3.12466V3.15047V3.17628V3.20209V3.2279V3.25372V3.27953V3.30534V3.33115V3.35697V3.38278V3.40859V3.4344V3.46022V3.48603V3.51184V3.53766V3.56347V3.58928V3.6151V3.64091V3.66672V3.69254V3.71835V3.74416V3.76998V3.79579V3.82161V3.84742V3.87324V3.89905V3.92486V3.95068V3.97649V4.00231V4.02812V4.05394V4.07975V4.10557V4.13139V4.1572V4.18302V4.20883V4.23465V4.26046V4.28628V4.3121V4.33791V4.36373V4.38954V4.41536V4.44118V4.467V4.49281V4.51863V4.54445V4.57026V4.59608V4.6219V4.64772V4.67353V4.69935V4.72517V4.75099V4.77681V4.80262V4.82844V4.85426V4.88008V4.9059V4.93172V4.95754V4.98336V5.00917V5.03499V5.06081V5.08663V5.11245V5.13827V5.16409V5.18991V5.21573V5.24155V5.26737V5.29319V5.31902V5.34484V5.37066V5.39648V5.4223V5.44812V5.47394V5.49976V5.52559V5.55141V5.57723V5.60305V5.62887V5.6547V5.68052V5.70634V5.73217V5.75799V5.78381V5.80963V5.83546V5.86128V5.88711V5.91293V5.93875V5.96458V5.9904V6.01623V6.04205V6.06788V6.0937V6.11953V6.14535V6.17118V6.197V6.22283V6.24865V6.27448V6.3003V6.32613V6.35196V6.37778V6.40361V6.42944V6.45526V6.48109V6.50692V6.53275V6.55857V6.5844V6.61023V6.63606V6.66189V6.68771V6.71354V6.73937V6.7652V6.79103V6.81686V6.84269V6.86852V6.89435V6.92018V6.94601V6.97184V6.99767V7.0235V7.04933V7.07516V7.10099V7.12682V7.15265V7.17848V7.20431V7.23015V7.25598V7.28181V7.30764V7.33348V7.35931V7.38514V7.41097V7.43681V7.46264V7.48847V7.51431V7.54014V7.56598V7.59181V7.61764V7.64348V7.66931V7.69515V7.72098V7.74682V7.77265V7.79849V7.82433V7.85016V7.876V7.90183V7.92767V7.95351V7.97934V8.00518V8.03102V8.05686V8.08269V8.10853V8.13437V8.16021V8.18605V8.21188V8.23772V8.26356V8.2894V8.31524V8.34108V8.36692V8.39276V8.4186V8.44444V8.47028V8.49612V8.52196V8.5478V8.57364V8.59949V8.62533V8.65117V8.67701V8.70285V8.7287V8.75454V8.78038V8.80623V8.83207V8.85791V8.88376V8.9096V8.93544V8.96129V8.98713V9.01298V9.03882V9.06467V9.09051V9.11636V9.1422V9.16805V9.1939V9.21974V9.24559V9.27144V9.29728V9.32313V9.34898V9.37483V9.40067V9.42652V9.45237V9.47822V9.50407V9.52992V9.55577V9.58161V9.60746V9.63331V9.65916V9.68501V9.71087V9.73672V9.76257V9.78842V9.81427V9.84012V9.86597V9.89182V9.91768V9.94353V9.96938V9.99524V10.0211V10.0469V10.0728V10.0986V10.1245V10.1504V10.1762V10.2021V10.2279V10.2538V10.2796V10.3055V10.3313V10.3572V10.3831V10.4089V10.4348V10.4606V10.4865V10.5123V10.5382V10.5641V10.5899V10.6158V10.6416V10.6675V10.6934V10.7192V10.7451V10.7709V10.7968V10.8227V10.8485V10.8744V10.9002V10.9261V10.952V10.9778V11.0037V11.0295V11.0554V11.0813V11.1071V11.133V11.1589V11.1847V11.2106V11.2365V11.2623V11.2882V11.314V11.3399V11.3658V11.3916V11.4175V11.4434V11.4692V11.4951V11.521V11.5468V11.5727V11.5986V11.6245V11.6503V11.6762V11.7021V11.7279V11.7538V11.7797V11.8055V11.8314V11.8573V11.8832V11.909V11.9349V11.9608V11.9866V12.0125V12.0384V12.0643V12.0901V12.116V12.1419V12.1677V12.1936V12.2195V12.2454V12.2712V12.2971V12.323V12.3489V12.3747V12.4006V12.4265V12.4524V12.4783V12.5041V12.53V12.5559V12.5818V12.6076V12.6335V12.6594V12.6853V12.7112V12.737V12.7629V12.7888V12.8147V12.8406V12.8664V12.8923V12.9182V12.9441V12.97V12.9959V13.0217V13.0476V13.0735V13.0994V13.1253V13.1512V13.177V13.2029V13.2288V13.2547V13.2806V13.3065V13.3324V13.3583V13.3841V13.41V13.4359V13.4618V13.4877V13.5136V13.5395V13.5654V13.5912V13.6171V13.643V13.6689V13.6948V13.7054Z" fill="#070707" stroke="#070707" stroke-width="0.0306072"/>
</svg>
