<svg width="13" height="18" viewBox="0 0 13 18" fill="none" xmlns="http://www.w3.org/2000/svg">
<path d="M12.5884 5.48438C12.5884 2.89954 10.4799 0.796875 7.88793 0.796875H0.837158V17.2031H7.88793C10.4799 17.2031 12.5884 15.1005 12.5884 12.5156C12.5884 11.1167 11.97 9.85968 10.9919 9C11.97 8.14032 12.5884 6.8833 12.5884 5.48438ZM10.2382 12.5156C10.2382 13.808 9.18393 14.8594 7.88793 14.8594H3.18741V10.1719H7.88793C9.18393 10.1719 10.2382 11.2232 10.2382 12.5156ZM3.18741 7.82812V3.14062H7.88793C9.18393 3.14062 10.2382 4.19196 10.2382 5.48438C10.2382 6.77679 9.18393 7.82812 7.88793 7.82812H3.18741Z" fill="#070707" stroke="#070707" stroke-width="0.5"/>
</svg>
