<svg fill="none" height="31" viewBox="0 0 60 31" width="60" xmlns="http://www.w3.org/2000/svg"><path d="m15 8.45918c-1.3925 0-2.7538.41294-3.9117 1.18659-1.15782.77363-2.06026 1.87333-2.59317 3.15983-.5329 1.2865-.67233 2.7022-.40066 4.068s.94225 2.6203 1.92693 3.605c.9847.9847 2.2392 1.6553 3.605 1.9269 1.3658.2717 2.7815.1323 4.068-.4006s2.3862-1.4354 3.1598-2.5932c.7737-1.1579 1.1866-2.5192 1.1866-3.9117 0-1.8673-.7418-3.6582-2.0622-4.9786-1.3204-1.32042-3.1113-2.06222-4.9786-2.06222zm0 12.24492c-1.0293 0-2.0354-.3052-2.8912-.8771-.8558-.5718-1.5229-1.3846-1.9167-2.3355-.39393-.9509-.49699-1.9973-.29619-3.0068.20079-1.0095.69649-1.9367 1.42429-2.6645s1.655-1.2235 2.6645-1.4243 2.0559-.0977 3.0068.2962c.9509.3938 1.7637 1.0609 2.3355 1.9167.5719.8558.8771 1.8619.8771 2.8912-.0041 1.379-.5536 2.7003-1.5287 3.6754s-2.2964 1.5246-3.6754 1.5287zm6.7347-20.2041h-13.46939c-2.1921 0-4.29441.87081-5.84446 2.42085-1.550043 1.55005-2.42085 3.65236-2.42085 5.84446v13.46939c0 2.1921.870807 4.2944 2.42085 5.8444 1.55005 1.5501 3.65236 2.4209 5.84446 2.4209h13.46939c2.1921 0 4.2944-.8708 5.8444-2.4209 1.5501-1.55 2.4209-3.6523 2.4209-5.8444v-13.46939c0-2.1921-.8708-4.29441-2.4209-5.84446-1.55-1.55004-3.6523-2.42085-5.8444-2.42085zm6.4286 21.7347c0 1.705-.6773 3.3401-1.8829 4.5457s-2.8407 1.8829-4.5457 1.8829h-13.46939c-1.70497 0-3.3401-.6773-4.54569-1.8829s-1.88289-2.8407-1.88289-4.5457v-13.46939c0-1.70497.6773-3.3401 1.88289-4.54569s2.84072-1.88289 4.54569-1.88289h13.46939c1.705 0 3.3401.6773 4.5457 1.88289s1.8829 2.84072 1.8829 4.54569zm-3.6735-14.69388c0 .30272-.0898.59865-.258.85036-.1681.25171-.4072.44789-.6869.56374s-.5874.14616-.8843.0871-.5697-.20484-.7837-.4189c-.2141-.21406-.3599-.48679-.4189-.7837-.0591-.29691-.0288-.60466.0871-.88434.1158-.27969.312-.51874.5637-.68692.2517-.16819.5477-.25796.8504-.25796.4059 0 .7952.16126 1.0823.44831.287.28705.4483.67636.4483 1.08231z" fill="#f8f1ea"/></svg>