<svg fill="none" height="74" viewBox="0 0 40 74" width="40" xmlns="http://www.w3.org/2000/svg"><g fill="#202020"><path d="m32.956 3.63397c.3173-.33491.6446-.57633.5422-.4336.6092-.71967.6838-.67322.6669-.863.3749-.47844.8981-.8644.456-.33611l1.163-1.296405-.7489.721265c.0571-.14333.3563-.431397.658-.72547l.1124-.110301.028-.027426.0138-.013612.0609-.055652.0597-.048644.0583-.048046.0286-.023821c.0082-.007207.0362-.024423.0533-.035834.079-.050647.1594-.096489.2372-.136927.0792-.041838.1369-.05385.2023-.079274.0629-.019818.1208-.0458424.1771-.0556515.112-.023622.2064-.0438414.2752-.0654615l-.1353.0104101c-.1194.0072573-.2373.0302763-.3508.0684641-.0718.0232218-.1428.0400378-.2393.0940878-.047.024451-.0932.050354-.1385.077672l-.0695.043039c-.0192.011606-.0377.024445-.0553.038436l-.1305.108701-.0084.007007-.059.05365-.0152.015613-.0306.03123-.0619.062858-.6592.671622.038-.09529c-.2716.33451-.8713.91225-1.0877 1.10603.0183-.04664-.0251-.04885.2063-.28687-1.6085 1.60529-.2823.58435-1.5832 1.95021.0808-.08527.1853-.18777.3361-.3229zm-1.5695 1.15908-.4518.66982-.9652.91545c.0264.04785-.6266.76491-.1318.33251.0846-.09689.2523-.28767.4-.4296-.0247.18557-1.2068 1.2944-.8504 1.09842.7202-.76731.8516-.864 1.2431-1.38849.6871-.67643 1.2004-1.15587 1.5468-1.44594.1896-.2152.1691-.29307.4156-.56072l-.1709.17837-.1476-.09289c-.1884.24062-.4025.4318-.6373.67302l.9572-1.24515c-.4663.24282-1.4785 1.39409-1.9558 1.78065.6351-.4356-.3757.47884.7481-.48545zm1.2063-.80815.0267-.02743zm-7.4698 55.2325c-.2354-.2326-.3325-.2733-.3806-.2929l2.6291 2.6409c-.0507-.1146-.7682-.9151-.2439-.4254-.1906-.2621-.9073-.9229-1.0494-.9804l.2386.1434c-.667-.5469-.9592-1.0848-.5283-.7243l-.0517-.0506-1.9135-1.4482c.6017.6332.5557.3948 1.2997 1.1375zm10.1772-54.84394c-.3293.35353-.3599.40718-.3096.37995.1076-.12297.2109-.2497.3096-.37995zm-11.9244 53.36814-.5993-.4538c.2304.1916.4418.3507.5993.4538zm4.7661 2.5252c.005-.0031.0142-.0009.0056-.0201l-.2736-.199.006.0061zm-16.9642-14.2373-.1777-.1681c.0633.0624.1222.1175.1777.1681zm24.5045 20.9705-1.2393-1.1034c.1894.1227-.3842-.434-.0987-.226-.0943-.0841-.5251-.4905-.4286-.3586l.2405.2377c-.7143-.5207-.379-.1073-1.4751-1.0594.5756.6966.9071.9224 1.2875 1.2153l.3192.2939 1.1086.8386zm-16.0979-45.6898-.0052.0206c.0092-.0146.0088-.0194.0052-.0206zm-.0247.1035.0195-.0831c-.0469.0791-.2722.3361-.0195.0831zm4.0729 36.458c-.0342.0024-.124-.043-.2567-.1299l.4475.3381z"/><path d="m25.5563 58.7023 1.0205.9822.4232.3155c-.4047-.3616-.8687-.7942-1.4437-1.2977zm-12.3387-10.9712c-2.0998-2.0484.6306.3898-.2987-.5867-.5926-.5591-.853-.7057-1.2315-1.0452 1.7011 1.5892-.4094-.0385 1.2878 1.5825-.339-.1339-1.3133-1.0807-1.8515-1.668-.5424-.7311.6314.4828.8726.5315-.6852-.6467-.585-.5123-.9236-.7392-1.0276-1.0625-2.29389-2.0328-2.7853-2.7886-.78198-.7315-.77893-.6354-1.26769-1.0174-.19189.0179 1.07581 1.1744 1.27502 1.5352-.04965-.0667-.1457-.197-.09788-.1789l.63547.6727c-.58765-.654.19148-.0179.53333.3043.24479.2381.73175.711.63625.6741l-.39004-.3413c.43974.5009 1.11974.957 1.56234 1.5076.0026.0492-.1974-.1269-.2407-.1406.6312.4829 1.1665 1.0213 2.0454 1.7913l-.5842-.3725c.7775.5419 2.245 2.0598 3.2237 3.1492-.0976-.1316-.293-.3496-.1483-.246.6357.58 1.0254 1.1073.6878.8814.6827.5053 2.2002 2.3224 3.1253 3.0165l4.2666 3.1772c-.1621-.1321-.3198-.2693-.4729-.4114-.2485-.4269-.4426-.5972.2389-.0929-.6329-.5311-.4829-.2373-1.365-1.103.3903.2955.5822.278-.2482-.5658-2.1944-1.9921-3.8479-3.1151-5.9448-4.9286-.0022-.1414-1.5641-1.6489-2.2971-2.4072.3616.2083.9395.7378 1.532 1.2943l-1.4384-1.4444z"/><path d="m17.7949 52.3107c-.0467-.0585-.0981-.1157-.1511-.1744.024.0353.0686.0877.1511.1744zm-3.204-2.9431c.01.0045.0096-.0002.0152-.0006l-.1906-.176zm9.0172 7.9868c.1464.1038.2455.1897.3919.2933l-.2874-.2455c-.0989-.0785-.1511-.1105-.1045-.0478zm.3.5393-.0966-.0375.134.1438c.0304-.001.028-.0294-.0374-.1063zm-18.69078-18.711-.21732-.1827c.12295.118.18154.1631.21732.1827z"/><path d="m10.7527 44.3171c.7243.6976.1897-.018 1.2054.978l-.2915-.2986c.7727.6713 2.0324 1.9479 2.9016 2.7938-.139-.055.4744.5645.309.5283.6065.5659 1.2068 1.1269 1.5779 1.361.3449.3812.9601.8702 1.3984 1.3546-.1577-.2313.7951.522-.3865-.5445.0968.0848.0483.0198.1442.103-.6763-.7704-1.0612-.9677-1.6917-1.584-.3379-.407.6772.5431.3376.1795-.8215-.7363-2.4195-2.4659-2.512-2.2729-.582-.5513-.6291-.66-.7731-.8532-1.0586-.7369-3.29102-3.3602-3.47957-3.1589.33802.3165.87207.8488 1.39857 1.283zm11.7294 10.6613-.1378-.1391zm8.4852 9.4483-.4289-.1683c-1.7395-1.6471-2.3208-2.2889-3.8202-3.7505-.0965-.1293.0959.0376.1934.1222-1.0652-1.0164-2.6099-2.5855-3.4334-3.278-.3332-.329-1.1698-1.2303-.7997-.9416-.1741-.1485-.3711-.3201-.554-.5078-.0034-.0939.4319.3981.4805.3714-.1451-.1485-.194-.2142-.2428-.2333.2893.2058-.1019-.408 1.0586.7369.3425.5481-.8195-.7798-.6726-.4016.3851.3795.3864.2903.4339.3085.4891.4852.4462.502.3928.503.2254.1487.7925.8063 1.1089 1.0066.9656.9298-.1416.037.4845.6486l.4809.2349 1.0156 1.0418c1.5459 1.4342-.0064-.4158 1.7804 1.204-.2889-.1599.2945.6207 1.0693 1.4304-.4829-.4655-1.4464-1.2564-2.0282-1.898.7764.9477-1.2098-1.1654-.8662-.6155.4817.3723 1.2061 1.0697 1.7381 1.6463l-.1946-.1691c.5823.5969 1.1593.9151 1.9322 1.7685.4122.3968.3016.3553.2015.3124.3634.3211.6955.6009.67.6282zm-.9144-.8479-.534-.5479c.1096.1469.3138.3462.534.5479zm-5.7953-51.7106.1757-.1532c-.0417.0302-.1072.0893-.1757.1532zm.7266 48.9988-.3122-.3144c.1018.1069.2059.2117.3122.3144zm-7.4967-6.576-.4901-.4257c.1841.1774.3382.3065.4901.4257zm2.9908-38.7296-.0163.0144-.0665.0779zm-16.94435 24.4786c-.07311-.0958-.15013-.1888-.23086-.2786.00101.0243.08864.1274.23086.2786zm14.04395 14.3295-.0257-.0296c-.0216-.0162-.0432-.0324-.0647-.0487zm10.1808 9.9121.2145.1868c-.0979-.0913-.1607-.1443-.2145-.1868zm-.1034-.7736c.076.0687.1493.1333.2087.1814zm11.3447 5.492-.443-.4008c.2111.2035.3429.3195.443.4008zm-10.297-4.3083c.0303.0187.0607.0377.0824.0486-.0626-.054-.0977-.0745-.0824-.0486zm-1.38-55.12607-.0254.0257.0034.02452zm.8595-1.18876.3642-.37687c-.1259.12136-.2474.24707-.3642.37687zm-24.83569 24.07903c.13013-.0935.41557-.3328.31203-.192.19057-.2365.11523-.2824-.31203.192zm22.65629-20.1112c.0516-.0824.1235-.1775.196-.2728-.14.172-.2637.3219-.196.2728zm.196-.2728.2035-.2533c-.0734.0872-.1421.1728-.2035.2533zm-24.17598 23.866c-.01873.0224-.02417.0583-.02296.1078.0276-.0164.02176-.054.02296-.1078z"/><path d="m28.5101 8.06748c.0376-.09417 1.574-1.75279.2157-.42376-.0362-.13986.8214-.90271 1.158-1.28274-.281.23957.0728-.18577-.0374-.13829-.1672.18834-.353.42475-.6532.7122-.1751.09476.2432-.37806.6063-.71101-.4753.38221.4741-.61387-.1682-.04253-1.2662 1.32804-2.1512 2.27645-2.935 3.31725.7181-.76047 1.5194-1.61372 2.1611-2.18466l-.1787.33097c-.7525.61842-1.1255 1.09144-1.8069 1.75853l1.555-1.47385c.7727-.64592.3126-.15688-.2327.41604.1385-.1369.2675-.25678.316-.27815zm-.3526 1.6881.0277-.02314c.0194-.02493.0453-.05421.056-.07162zm8.8421 61.23852-.1591-.1014c.1217.0957.1642.1202.1591.1014zm-10.1143-60.704.001-.001c-.0003.0004-.0007.0007-.001.001zm9.1777 59.7034c.0065.0028.0133.005.0238.0109-.0139-.0095-.0163-.0071-.0238-.0109zm-2.5065.7757c.0023.0097.001.0146.0114.0323.0735.0646.0434.0278-.0114-.0323zm2.4968-.7709c.0024-.0024.0026-.0068.0097-.0046-.0049-.0002-.013-.0032-.0097.0046zm-16.019-15.4567s.0366.0627.1023.1537c.0374.0232.0152-.0154-.1023-.1537zm2.9943 3.2188.0483.0652zm-20.66628-24.5546c-.12326.121-.24406.2445-.36232.3704.12449-.1198.24532-.2433.36232-.3704zm33.72448 36.7986c.0405.0243.095.0621.1814.128-.0948-.073-.1476-.1088-.1814-.128zm-21.1743-19.8143.1039.0871-.053-.0606z"/><path d="m13.6402 48.9581c.0637.0463.0982.0624.1367.0858-.6085-.543-1.6342-1.6325-1.8404-1.6769.1977.1929 1.1655 1.2505.9453 1.1254.4224.3804.9602 1.0284 1.1901 1.2309-.6162-.7012-.0034-.1389.4697.2779.382.427-.1412-.0114.193.3512l.947.9248-.8065-.8239.3259.1697-.0905-.0756c-1.419-1.3403-.0042-.23-1.4703-1.5893zm.1367.0858c.0914.0811.1732.1511.2407.2013-.1318-.1284-.1904-.171-.2407-.2013zm-5.51982-5.7499-.25708-.2314zm18.93792 16.8795c.0014.0467.7598.8958.805.8219l-.703-.7372zm-17.0415-32.3296c-.0913.0876-.18209.1764-.27127.267l-.04301.0614c.06373-.0457.23028-.2335.31428-.3284zm2.4511 20.4287c.1568.1379.232.1939.277.2198-.1005-.0905-.1963-.1707-.277-.2198zm-2.2585-20.3377c.1314-.0968.3257-.2385.3725-.2396.2344-.2322.3672-.4268.594-.6749-.26.276-.5767.5794-.9665.9145zm.9847-.9349-.0182.0204z"/><path d="m26.723 59.7211-.2306-.2034.1297.0965-.5453-.5777c-.0818-.0722-.1625-.1458-.2418-.2208.0386.0341.0733.0556.0974.0666l-.1734-.1865c-.5117-.3831-1.6744-1.4463-2.0336-1.7294-.4531-.3964-.9901-.8994-1.3126-1.2289.302.3024.7172.6895.6313.5351-.5795-.6472-.7746-1.0479-1.927-2.0138l.6247.6173-1.5363-1.2574c-.4351-.5431.7667.6275 1.0099.7725-1.1564-1.0161-1.8853-2.0923-2.5073-2.4779-.0018-.1393-.0059-.3728-.7279-1.0758.4367.5905-.4796-.3753-.141.1287-.2868-.2058-.773-.8168-.8657-.8062l.0955.0378c-1.1115-1.3211-1.6832-1.5474-2.2622-2.0098-1.4905-1.4236-2.117-2.1349-3.3212-3.3073-.0004-.0926-.1975-.5417-.6809-1.0118-.2852-.1586-1.39344-1.2009-1.58428-1.2305.82178.8825.76736.6277 1.29808 1.1173.342.507-.0447.1212.4871.7493-.4371-.499-2.16705-2.0641-2.60251-2.6533l.19264.1693c-.77338-.8632-.73123-1.2164-2.2202-2.4555l-.70234-.5994c.03953.0233.05257.0175.07645.0271-.53017-.5347-.69953-.7522-.89278-.9737-.05085-.0586-.1029-.1161-.15612-.1726-.07205-.0759-.14564-.1503-.22073-.2233-.17298-.1689-.40375-.3827-.76596-.7062.11178.0998.06301.0339.17459.1339-.14382-.1613-.29307-.3177-.4475-.469.28475-.2852.54041-.5697.79064-.852l.36783-.4149.30822-.3417c.37746-.2416-.00762.1387-.1511.3775 1.20923-1.149 2.37111-2.531 3.02409-3.3416l.80207-.7181c-.42461.4767-.90682 1.0956-.72823.9988.40596-.4297.29318-.3807.8992-.9568-.05839.1431-.26729.4299-.49224.7604 1.29873-1.1467.12221-.4233 1.11231-1.1451.38629-.3818.54763-.6663.538-.7596l.76617-.6261c.0116-.1424.8699-1.0022 1.4249-1.5729.0406-.0967-.5253.3816-.714.6195-.0096-.0932.5671-.7142.9548-1.0971.28-.0031 2.511-2.5325 2.217-1.917 1.6915-1.7686 4.117-4.2041 5.2052-5.3994.4162-.3373 1.1884-1.0998.7918-.5771 1.3985-1.3871 1.9772-2.2439 3.4026-3.5836.132-.0968-.6261.6239-.5306.6207.8514-.9552 1.7085-1.5797 3.0787-3.0132-.2342.2374-.2747.3342-.2932.3812-.0476.0018.5288-.6195.8707-1.003.2165-.1912-.2559.2869-.1236.1905 2.7853-2.6316 4.668-4.87415 7.3776-7.55175-.7738.76458-.9741 1.14527-.9446 1.19089l.758-.74924c.2456-.33487.8137-.89844 1.2542-1.40384.0754-.04084.325-.2518.1111.00379.7935-.69545 1.3349-1.31619 1.913-1.98435l.4449-.51197.0568-.06534.0339-.0524c.0233-.03406.0502-.06574.0618-.10677.0367-.07351.0556-.15618.0626-.23926.006-.08366-.0022-.17032-.0285-.2526-.0158-.03844-.0253-.08964-.0449-.10956-.0079-.01382-.0146-.02828-.0199-.04323l-.0042-.01215-.0171-.02012-.0341-.04044-.0688-.08188-.0087-.01036-.0012-.00119c.0478.05259.0127.01414.0231.02569l-.0018-.00119-.0036-.00259-.014-.01036-.0279-.02131-.054-.04582c-.0218-.01-.0432-.02077-.0642-.03228-.0452-.03107-.0779-.03147-.111-.049-.0078-.01056-.0514-.01474-.0917-.01893l-.1196-.01414.1352.00159c.0185.001.0522-.00119.0643.00279.0295.00815.0598.0131.0905.01474l.0664.0263c.051.01255.0961.04422.1467.07709l.0196.01196.0103.00597.0048.00299.0014.0008.0006.0004c-.0082-.00917.0197.02111-.0185-.02072l.0028.00299.046.04701c.0312.03215.0623.06429.0935.09642.0554.07789.1341.22112.1519.37332.0121.15383-.0164.30813-.0829.44763-.0423.06534-.074.12291-.1298.18865l-.1539.18049-.3175.37252.6129-.48069-.8906 1.05123c.6301-.53548 1.0292-1.12096 1.152-1.19606-.0132.04881-.0515.10259-.0955.16056l-.0676.08885-.0658.07311c-.0851.09543-.1537.17909-.1395.2024.1473-.13606.2527-.22272.352-.35539.051-.05678.0801-.11853.1065-.1759.0269-.05718.0534-.10877.0623-.16495l.0339-.16057.004-.16893c.0054-.05877-.01-.12052-.0193-.18865-.0058-.06873-.0293-.14025-.0576-.21993.098.20041.1347.47133.0548.74605-.0393.13566-.1023.2761-.2007.39643-.0224.02968-.0485.06614-.07.09064l-.0644.07231-.132.14662c-.3802.41806-.7661.83093-1.1577 1.2385l-2.1989 2.27619c-.1728.19343.1232-.19005.1412-.23666-.4719.4779-.802.71815-1.3776 1.3381-.3128.4293.3283-.23866.6303-.52592.0113.09204-.1406.23666-.4623.57134-.1407.00219-1.8325 1.77039-2.3414 2.10785-1.738 1.76863.4607-.1012-1.2873 1.57413l-.5924.4307c-.9359 1.0509-2.1714 2.3854-3.317 3.489l.2351-.2386c.1247-.1909-.1581.0482-.2913.146-.8868.813-1.557 1.6692-2.153 2.1035-.8884 1.0492-2.4478 2.721-3.5163 3.8683-.4046.194 1.3621-1.5284 1.7594-2.0525l-1.0117 1.0054c.6242-.6225.8317-.9074 1.1474-1.3389-.9066.8616-1.1069 1.2419-1.9216 2.1033.0371-.0933-.0927.001-.4814.3852l-.0408.1783c-.0128.0014-.061.0389-.1852.1534l-1.4542 1.5278c.3471-.2859.423-.2411.8105-.6241-.1786.0968.1414-.2367.5293-.6196-.2935.3815.4154-.3365.4447-.2912-.7776.7681-1.7211 1.7233-2.2106 2.2471l-.2291.1006c-.7553.7177-1.5004 1.5279-2.0204 2.0072l.1243-.1906c-.9065.861-1.7386 1.7688-2.5883 2.4885-.718.8578-1.6531 1.9069-2.2232 2.6244-.2633.4254-2.42468 2.2015-3.20027 3.2022-.06903.0508.55044-.6698.82355-1.0029-.60602.5763-.97505 1.1463-1.24776 1.2449 1.36034-1.2927-.14087.0022.43425-.6178-.62167.6204-1.26321 1.2885-1.53793 1.6228 1.00796-1.0022-.2384.4747.74508-.5767-.34194.4084-.75893.8718-1.20682 1.3429l-.43445.4538c-.1074.1082-.21788.2134-.3313.3153l.05799.0648c-.07505 0-.05277.0564.10937.2482.00381.004.22073.1114.21692.1076.10013.1091-.01907.0227-.12462-.0476-.10354-.0686-.19324-.121.04014.1297.08488.0613.12501.0856.29578.2446.15197.1405.30176.2832.4493.4283l.94335.9439c.62047.6227 1.18676 1.1717 1.47271 1.2849.6287.759-1.39445-1.2477-.42763-.1227-.67284-.5447-1.44421-1.4517-1.73137-1.5664.62308.5699.14589.2888.53117.6731l.7206.6102-.14448-.1498c1.20141 1.0317 2.93762 2.8325 4.38202 4.2392 1.2983 1.1172 2.2575 1.8216 3.7017 3.274-.4798-.3757 1.1585 1.2469.1505.4307.6279.712 1.3449 1.3188 1.3957 1.2947-.5789-.6004-.1961-.2185-.6761-.7317.3819.2888 1.1555 1.061 1.4445 1.4068-.1445-.15-.097-.0856-.1437-.1038.676.7317.3839.2915.9134.7795.0984.224 1.1105 1.1362 1.544 1.6316l.7667.5813c-.431-.3096.6263.665.6779.8253.527.4397 1.0074.77 1.7298 1.519-.3362-.2719.6289.7134.5811.7861 1.2066 1.3128 2.2589 1.915 3.3698 3.1902-.0511-.0229-.3327-.2236.0022.139.2926.257.7682.7433 1.07 1.0297l-.0112-.0075.0172.0135c.1475.1401.2461.2229.2641.2118.5643.4426.885.6408 1.9288 1.5775-.0038-.1412-.8695-.9474-1.2549-1.2859l-.3823-.2438c-.1957-.4016-.9145-.8718-1.1077-1.1333.7186.4701 2.4052 2.2043 3.5103 3.1519-.5314-.719-1.8823-2.0901-3.0859-3.2617l.4834.5622-.6249-.6178.53.6724c-.5777-.5995-1.1073-1.0875-1.6371-1.6218.6265.6191.7746.9558.4359.5897-.6287-.759-.7702-.6766-1.2985-1.2093.2901.3006.6744.6845.3863.4772-.9669-1.1248-1.3046-1.3527-2.1705-2.3886.003.2321-1.2044-1.173-1.442-1.221l.4335.4495-1.0096-.8638c-.7732-.9542.8635.6671-.3895-.709-1.206-1.2204-1.2957-1.0686-2.262-2.0101.3839.2451 1.2017.9407 1.9722 1.7093l-.4348-.4971c.2871.2064 1.3473 1.2754 1.8764 1.8087-.9596-.7969.3883.4333.7277.8923.1398.0073-.4363-.5437.2847.0665-.6271-.62-.724-.7052-1.4952-1.5204 1.6907 1.7383 1.7769 1.308 3.2234 2.8543-.7222-.6576.1459.3345.197.449.3337.3156 1.0104.956 1.2988 1.2092l-.1505-.339c.9162.8275 1.0177 1.3303 2.1262 2.2351.1885.0733-.8689-.901-.676-.7319 1.4418 1.3122 1.7853 1.9593 2.9404 3.2488.0981.0402.1445-.0341.6239.3418-.1921-.0769.0961.2676-.4289-.1701.3861.4313.9143.8719 1.2984 1.2088-.8204-.8811.4318.265.6235.3871.4326.4488-.1921-.0771-.4808-.3307.3397.3679.6772.8705.9648.9855-.0464.0739-1.1515-.8275-1.8257-1.4656l.434.4502c-.3365-.2727-.3851-.3383-.8161-.7849.3845.4747.2902.4837.1467.4267-.0478-.0647.0458.017.0004-.0452-.3393-.3675-.6281-.6211-.5779-.5076-.4002-.2363.4412.5387.6411.8176l.5575.5213 2.1036 1.571c.8177.7514 1.1093 1.165 1.6615 1.7911l.232.092c.6779.6873 1.3023 1.3509.775 1.0027-.0014-.0476-.0973-.1319-.2428-.2829-.0293-.0102-.0703-.0375-.119-.0751-.0185-.0102-.0303-.014-.0462-.0215l1.2741 1.1855c-1.3471-1.1363-.1889.0637-.521-.0205.2959.2755.5917.551.8876.8265l.1098.1022.143.1603.0394.0449c.004.0034.0162.0207.0279.0378l.0321.0482c.0409.0628.0744.1202.1005.1676.0528.0958.0767.1514.0739.1484-.0589-.144-.1317-.282-.2174-.412-.0065-.0094-.0132-.0188-.0198-.0281l-.0348-.0494c-.0167-.0249-.0334-.0499-.0499-.0749l-.0044-.0072-.0006-.0007-.0578-.0636-.0012-.0018-.0024-.0032-.0087-.0113-.0124-.0184c-.0127-.0201-.0094-.0243.0054-.0163.0074.004.0177.011.0305.0203l.01.0076.0008.0006.06.0657.0013.0012.0026.0024.005.0048.022.0217c.0322.0327.0687.0693.1136.1195.0839.115.17.2558.2372.3979.0452.1203.0877.245.1156.3617.0199.1186.0325.2297.0405.3206-.0166.0572-.029.1156-.0371.1747-.0162.0886-.0263.206-.0724.3388-.0203.0668-.0436.1385-.0701.2134-.0335.0721-.072.1476-.1141.2251-.0394.0797-.0917.1538-.1521.2269l-.091.1112-.0477.0553-.006.0068-.0707.0634-.0074.0063-.015.0128-.1219.1046c-.0838.0613-.2096.1376-.3212.1944l-.0871.0426-.0737.0259-.1493.0476c-.0993.0337-.2008.0492-.3026.0592-.2018.0303-.4005.0066-.5811-.0211-.1786-.045-.3435-.0921-.473-.169l.0873.0212c-.12-.0664-.2562-.1315-.3738-.2377-.0602-.0494-.1253-.1054-.1816-.158l-.0952-.0986-.4206-.4231c-.2861-.282-.5769-.5594-.8721-.8321 0 .046-.7671-.4899-1.1496-.7337.8484.8937.3016.4064.3287.5187-.0867-.0936-.2484-.2559-.2763-.2659-.1451-.1046.1434.1948.1453.242.4808.4453.9626.9029 1.3838 1.2842.1886.1725.3815.3405.5783.5038l.1525.1227c.0897.0709.1786.1342.2635.1892.1736.1046.3459.168.4858.2108-.1954-.1052-.3805-.1986-.5304-.3245-.0744-.0574-.1609-.1275-.2189-.1771l-.1025-.0851c-.1381-.1125-.2824-.2279-.4273-.4008.1401.1055.2758.2166.4068.3329.0349.0313.0704.0627.1064.0952l.0646.0582.123.102c.1629.1406.3612.246.5717.34.4585.1792.9642.2007 1.4364.061.0624-.0185.1248-.0385.187-.0604.0759-.0334.1525-.0713.2274-.1129.075-.0417.1489-.0871.2199-.1351.0221-.0149.0285-.0203.0331-.0241l.0187-.0149.0375-.0299.0756-.0608.0095-.0078.0048-.0037.0889-.0801.0044-.0048.0351-.0388.0695-.0795c.0917-.1084.1812-.2198.247-.3516l.0674-.1008c.0413-.061.0911-.1445.1278-.2351.0398-.0895.0759-.1821.1012-.2522.0234-.0703.0321-.1191.0321-.1191l.0098-.1038c.0034-.0662.0159-.161.0084-.2737-.0091-.1287-.0254-.2567-.0487-.3835-.0388-.1399-.0767-.2751-.1431-.4285-.0628-.1291-.1351-.2533-.2163-.3718l-.0398-.0561c-.0156-.022-.0134-.0166-.021-.0261l-.117-.1307-.0871-.0954-.0068-.0062-.0133-.0124-.0245-.0223-.0397-.0366c-.0221-.0204-.0349-.0317-.0349-.0317.0445.0364.0811.0641.113.0869l.0118.0081.0056.004.0004.0004.0819.0897.0008.0005.0012.0012.0028.0022.0201.0162.0369.0283.0678.0476.0347.0247c.0157.0139.0516.0599.0785.0944.0582.0763.1232.1703.1922.2946l.0512.098.0357.0889c.0241.0627.049.1331.0731.2118.0821.3093.1699.7926-.0745 1.4245.041-.0727.1379-.2691.176-.5588.0173-.1456.0359-.3121.0127-.4938-.0084-.0943-.0212-.1882-.0384-.2813-.0242-.0952-.0531-.1932-.0867-.2919-.0395-.1651-.2532-.5247-.3628-.6566l-.0949-.1085-.1144-.1267-.0265-.0251-.0529-.0502c-.1368-.129-.2699-.2618-.3992-.3983l-.3327-.1768c.1415.0547-.9186-1.0142-.1007-.319.3144.282.6288.5638.9433.8457l.0271.0243.0133.0119.0066.006.0016.0014.0999.1096.003.0032.0889.0974.0394.0432c.001-.0012.0291.038.0421.0562l.047.0675c.0598.0884.1077.1697.1451.2371.0748.1366.1069.2151.1035.2095.0042.0062-.0273-.084-.0909-.2191-.0363-.0766-.0757-.1517-.1182-.2251l-.1092-.1785-.0857-.1446-.1051-.1158-.0014-.0018-.0024-.0033-.0048-.0066-.0089-.012c-.0054-.0073-.0104-.0139-.0142-.0195-.0078-.0108-.0126-.0167-.0126-.0167l.0457.0438.0054.0054.1106.1209.0112.0131.0253.0299c.0183.0213.0385.0456.061.0717l.0171.0204.0086.0103c.0061.0069.0118.0142.0169.0219.1191.1652.2221.3414.3074.5261.0469.1136.077.2138.1108.3278l.0445.1687c.0096.0572.0175.1151.0245.1731.0742.4664-.0317.9377-.1551 1.2672-.0711.1617-.1429.2928-.1943.3825-.0499.091-.0885.1352-.0885.1352s.0074-.0117.0209-.0318c.0136-.02.0309-.05.0494-.0877.0379-.0745.086-.1755.1286-.2779.0404-.0924.0718-.1884.0939-.2867l.0309-.1334c-.0241.0896-.0508.1763-.0793.2593-.0303.0821-.0704.1588-.1075.2337-.0381.0747-.0777.146-.1178.214-.0418.0665-.0899.1259-.1355.1848-.0461.0584-.0927.1138-.139.1664l-.0347.0388-.0175.0189-.0042.0048-.0022.0024-.1154.1036-.004.0034-.0307.0255c-.0408.0331-.0791.0641-.1148.0936-.2033.15-.5121.3138-.6692.3562-.172.052-.3223.0958-.4558.108-.2678.0291-.4559.0217-.6028-.007-.1467-.0263-.2526-.0466-.3541-.0888-.1134-.043-.2257-.0885-.337-.1365-.1274-.0683-.2982-.1486-.5049-.3006-.0546-.0426-.1084-.0862-.1613-.1309l-.0873-.0757-.0449-.0406-.0211-.0207-.1772-.1716c-.1747-.1642-.3517-.3258-.5312-.4848-.622-.4319-1.2002-.9859-2.2124-2.036.7698.7226.1429.0108.4789.2367-.7247-.7971-1.0596-.9764-1.4924-1.3335-.1453-.2423-.2432-.4196.4318.2647.1888-.0179-.9154-.8733-.8711-1.0409-2.2635-2.2407-2.1554-1.4564-4.6645-4.2117l.142.0556c-1.7313-1.6124-2.648-2.6244-4.2355-4.1333l-1.1139-1.3229c.2904.2548 1.1077.904.8169.5108.4844.7006 1.1547 1.2891 1.7364 1.9843.0941.0367-.1461-.2432-.2422-.3737.3859.3851.5306.6269 1.0607 1.1154-.0018-.047-.5319-.6277-.0983-.2241l.6271.7578c.9624.8912.6209.293 1.6822 1.4086-.2639-.1415-.7666-.4662-1.204-.8716.486.5086-.7022-.6243-.283-.136.8091.6247 1.0851 1.0401 2.0976 1.9333-.1248-.099-.1719-.1109-.4129-.339l1.3495 1.4152c-.2906-.3931 1.204 1.0805 1.153.8747-1.4462-1.5001-1.0589-1.0218-2.6998-2.7386.4947.456 1.1894.9875 1.5508 1.2011.0116.0175.0335.0442.0839.097.3347.1787.0931-.1024.2333-.2317-.8654-.6681-1.3003-1.2572-2.2629-2.1029-.2446-.0958.4318.6164.902 1.0449l-.8484-.7446.1914.1223-2.0039-2.0384c.3885.3777.5619.4646.7949.6315-.2589-.2625-.4987-.5394-.7527-.8343-.0127.1277-.0992.1409-.3532-.1137-1.2883-1.3126-1.9505-2.0959-2.3515-2.6541l-.1569-.1458c.1463.289-1.0571-.7909-1.5355-1.119.0949-.0542-.6277-.7122-.9658-1.1237-.2862-.1134-.1377.2695.2502.7938.9612.7982.5737.4122 1.1023.7156l1.49 1.3317-.3851-.246c.6764.7315 1.4456 1.3156 1.3045 1.3524-.4328-.3115-1.0132-.9594-1.4432-1.268l.4349.4965c-.9123-.7317-.3384-.5034-1.3979-1.4339.2916.4398-.0959-.0845-.5743-.4586.2906.3932 1.7795 1.7237 1.3507 1.5538-.5755-.4596-1.5959-1.8841-2.4109-2.4387l.0482.0189c-.9967-1.0228-1.4265-1.3032-1.8522-1.6339-.3895-.4694-1.0436-1.0023-1.5156-1.4617l.0489-.0258-.675-.6391c.3823.244.771.7689 1.3473 1.3216l-.0008-.1391c.5703.7303 1.1316 1.0379 1.6978 1.4811-.7972-.6717-2.064-2.0829-2.3733-2.1198l-.3857-.5223-.2434-.1914c-.2869-.3897.1427-.1275.8172.5107.0967.1311.1452.1965.0961.1765.3369.2728.6716.4977 1.3954 1.2483l-.4316-.3554c.9162.9194 1.7805 1.7242 2.1644 1.9694-1.3009-1.3491-2.6025-2.6533-3.8544-3.8898-.5258-.2096-1.0509-.5556-1.3849-.5968-.8648-.805-2.0225-1.9143-2.6966-2.6898l.0958.0377c-.3053-.3291-.6273-.6424-.9649-.9387-.3367-.4106.3342.1783.0936-.102l-1.24921-1.1427c.14027.0078 1.15021 1.0098 1.63461 1.4813-.0961-.0842-.2897-.2545-.24-.1874.5308.5807 1.6827 1.5004 1.8307 1.8377.2884.2532-.6228-.4779.2924.4405.5802.6474.8665.7612.9596.7966.0476-.0273-.9156-1.0108-.5314-.7191-.4842-.4714-.7234-.613-1.3005-1.2577.4798.4674 1.2014 1.0327 1.3963 1.3417 1.0095.8636 1.0507.555.6174.1054.0502.1596-1.7823-1.6343-.6218-.3396-.6245-.4792-1.6363-1.4824-2.4047-2.1575l.047.0187-.9167-.8749c.1463.106.4349.3594.481.3311l-1.34565-1.1363c.76835.6287-.38769-.4777-.67686-.8242-.19083-.0755-.719-.5165-.28515-.0207.48301.5622.33652.2723.81793.7417l-.76596-.5807-.04916-.0664-.4808-.33c-.91486-.9186.57411.2282-.67726-.8704l.05257.2526c-1.3501-1.3698-2.98937-3.2226-4.00054-4.1338.32348.2071.53298.2318.22194-.1857.39853.4301 1.23773 1.2562 1.84375 1.8389.09692.1315-.86448-.6213-1.49077-1.2863.1487.4757 1.72957 1.519 1.63846 1.7608 1.59271 1.6973 1.39285 1.0626 2.69599 2.5515.09412-.0549.43486.3592.57452.3668-.29278-.5329-1.87746-1.8555-2.74435-2.8009.09451.083.28475.2498.33411.2705-.62809-.6672-.91344-.9172-1.39525-1.3405l.04836.0655c-.86649-.7151-.43505-.5428-.8693-1.039-.19204-.1688-.81973-.8347-.77017-.6766l-.77478-.91-.04274.1234c-.48181-.4688-.53097-.6272-1.01439-1.0059l-.09471.0542 1.15866 1.2019c-.62488-.5718-.23879-.0953-.91425-.7347.40937.3253.28937.1856.06663-.053-.11138-.1195-.24843-.2634-.3578-.3863-.05458-.0617-.10254-.1179-.13665-.1629-.01476-.0194-.02856-.0395-.04134-.0602-.01331-.0165-.02394-.0349-.03151-.0546-.11418-.102-.228559-.204-.335917-.3108l-.223947-.2348-.112977-.119c-.037726-.0398-.061807-.0856-.093513-.1286l.082877.1105.102141.101-.088295-.1207-.062808-.1163c-.039532-.0742-.083679-.1373-.106154-.2072l-.080669-.1911c-.022877-.0623-.037325-.1259-.057192-.189-.045351-.1257-.057391-.2636-.075652-.4277.002609-.0823.007425-.1718.016255-.271.014047-.0982.044348-.2036.07204-.3223l-.085285.2972c-.015853.0992-.029498.1967-.041539.2931-.001404.0962.002811.1914.006824.2862.008027.0943.030501.1853.045551.2781.04475.1813.10495.3624.20689.5296.040335.0884.109767.1675.17659.2506l.209097.2549.388493.3732c.08749.0797.17258.1538.2701.2366l-.22575-.192c-.0289-.0233-.1202-.1088-.19485-.1777l-.249833-.2323c-.175185-.1996-.384683-.4084-.51251-.6522-.120602-.2486-.212106-.5168-.2361863-.7763-.0610034-.5232.1097663-.9519.1870233-1.1351.108562-.2714.333713-.4756.515118-.6819.177994-.1923.402538-.4375.483208-.4975.22395-.1998.4489-.3906.69211-.6235-.44348.4699-.30662.4466-.29518.5269.00562.0403-.02007.1064-.16535.2731l-.41559.4576-.368028.3947c-.059799.0781-.107558.1677-.167157.2587-.04194.0996-.093513.2034-.129433.3194-.004214-.0737.116791-.3692.204082-.4606-.175786.1516-.383278.5986-.331104 1.122.017057.2605.117793.5225.241405.756.133044.2281.337325.4139.497459.5852l.365216.3208c-.04936-.098.06883-.0132.08549-.0231.01023-.003.02207-.003-.02107-.0572-.04576-.0568-.13626-.1578-.29659-.3293l-.218933-.2729c.065017.0942.039532.0908-.050769.0121-.022274-.0199-.050167-.0436-.078662-.0731l-.082476-.1076c-.028896-.0408-.065418-.0834-.094515-.1346-.025686-.0536-.053578-.1108-.082675-.1709-.102542-.2453-.181004-.5778-.122208-.9242.057392-.346.2099-.6847.485219-.9295l-.009633.1289c-.006623.0617-.001404.1241.001004.1251-.006823-.0032.078863-.0915.205888-.2241l.45752-.4769.49626-.4787-.08609.0964c.44368-.2901 1.02923-1.0507 1.74743-1.6754.44428-.5245 2.34362-2.3437 1.41773-1.669.67826-.5271 1.11532-1.147 1.75926-1.8178l-.8705.7688c.88816-1.0489.66241-.7168 1.30676-1.6224.11077-.046.31064-.192.18662-.0016 1.31238-1.2907 3.21115-3.1097 3.88115-3.9661.9259-.909 1.209-.9148 2.4466-2.2515.2554-.2867-.3221.1014.567-.7142.0665-.0484-.7362.9043.2069-.0508.588-.7631 1.6435-1.5321 2.4476-2.4861.4985-.4301 1.2947-1.2451 1.198-1.0068-.7543.7165-1.784 1.7682-1.9088 1.9604.0586-.144-.5669.4797-.0562-.0934-1.1699 1.0538-.6798.763-1.7177 1.7198-.0403.097.5938-.4321.7828-.6708.1024.0925-1.9262 2.0063-.9192 1.2395 1.078-1.0534 1.1915-1.5712 2.2214-2.3891-.3121.4279-.9436.9548-1.3128 1.5253l.8011-.7169.4822-.619-.0185.047c1.4348-1.2466 1.1436-1.3355 2.2983-2.579-.7652.625-.0085-.3285-.5745.1511.7924-.8116 1.3964-1.3854 1.4998-1.2937-1.426 1.5741.018.1876-1.2765 1.6664.2635-.1921-.1882.4711.6522-.3417.8649-.9972-.361.1966.539-.7608.0638-.046.1298-.094.1115-.0476.3779-.4761.5186-.4783.9813-1.0492l-.1033.1416c.6991-.5761.6325-.7616 1.2479-1.2441-.2927.1467.3101-.4263.6063-.8101-.5856.5269-.992.7235-2.0876 1.8225-.0755.1891.0367.1409-.3879.6176l.709-.7176c-.1451.1626-.2479.2943-.3781.4463l-.7174.653c.8308-.9062.3696-.5704.6805-.9973.8229-.7671.6425-.6691 1.1629-1.1488.0337.1336 1.6822-1.3843 2.655-2.2423l-.4296.4197c-.6141.7152.5293-.3861.5771-.3877l.4441-.5245c-.0857.0966-.1927.2418.0267.0478.6427-.6689.5209-.714 1.1623-1.3821.0957-.003-.3895.6185.0435.237.1814-.0996.7379-.4384 1.57-1.34602.0444-.07889.2607-.31356.5154-.5817-.034.03865-.0781.08606-.091.10558l.6306-.52552c-.415.56915-1.0367.95502-1.4541 1.52716l.0331.1165c-.3863.3841-.8787.9375-1.081 1.2158.602-.5723.7064-.7151 1.3499-1.3849.1397-.04442-.2892.4514-.351.5229l.0554-.1402c-.8482.7183-1.1029 1.2381-2.0952 2.1955-.1507.1436-.0662.0486-.0475.0018-.7192.8586-1.5961 1.5309-2.27 2.3905l.2113-.2884-2.3956 2.7308.0211.0372c.1312-.0954-.2543.2853-.4724.4781l.0006-.0014-1.3172 1.4933c.1822-.1377.3563-.2857.5214-.4432.1262-.1937 1.0954-1.0999.8883-1.0493.4818-.3849 1.1149-1.1474 1.4637-1.4351-.6319.5277.3315-.4755.3903-.6193.245-.1453.8585-.8596.8486-.7182.1321-.0968-.3297.24-.5373.5251-.5477.6664 1.1701-1.0536.4695-.2416.9191-1.0046 2.2116-2.2477 3.1463-3.297l-.5847.5265c.4525-.4299 1.4853-1.4847 1.5957-1.5307-.3213.3343-.7066.7152-1.1141 1.1461.0543.0946 1.0109-1.0045 1.1038-1.0051l1.0985-1.33627-.5394.52727c.2918-.37985 1.4659-1.43647 2.3059-2.24965-.3734.57413-1.249 1.24507-2.0805 2.15245-.5952.6682.4902-.29042-.0853.3295.1796-.1309.5683-.5223.7356-.73945l.2551-.21654c-.4421.62389-1.663 1.79469-2.3818 2.66729.0602-.0795.1108-.1507.122-.1833-.6511.5747-1.2744 1.1964-1.8493 1.8162.3465-.2859.4521-.4301.6227-.621.0455.0004-.5105.5724-.6994.8102.5852-.5269.159-.0488.5272-.3838-.3412.3826-.642.6683-1.0945 1.0982-.2647.193.1415-.2367.0486-.2359-.4282.4801-.7471.5776-1.3611 1.2929.907-.862-.1337.3317-.4084.666l.1519-.1444c-.2274.3328-.4642.5723-.708.7163.3412-.3827.708-.7163.5497-.6683-.2376.2406-.4744.4803-.7297.7665l.2075-.2846-1.1811 1.1952c-.1403.2357-.3873.6166-.481.8517-.3299.2404-.6917.6721-.9462.9584l.106-.1455c-.5675.4811-1.7033 1.6774-1.7591 1.818-.4142.3351 2.3834-2.9084-.2334-.2316-1.0093 1.0028-.4922.7604-1.0212 1.3795 0 0 .0185-.0462-.0477.0016-.4519.4289-.4441.5247-.7854.9072.2857-.2424.6708-.6227.7745-.7652-.0756.1889-.9255.9088-1.219 1.2897.3511-.5239-.888.8148-.5922.4311-.9359.8162-1.8058 1.8184-2.2023 2.3414-.7072.482-1.0313 1.053-2.0505 1.963.1521-.1444.4056-.4289.6255-.6235.4816-.6176-1.03987.959-.2549.0521-.1705.1913.0245.0498.1997-.146.3179-.3313.5938-.6665.48-.6169l-.851.7215.2584-.2902-1.28324 1.1032c-.01846.0462.11157-.0476.17779-.0962-1.42635 1.3409-2.96609 2.9646-4.19419 4.1611-.01505.2118-.74247.9761-1.57384 1.8246l-.63352.6448-.31364.3206-.1184.1231-.06722.0735c-.0877.095-.17097.186-.18803.2932-.02167.1038.00542.2012.05318.2648-.06984-.0658-.13184-.1343-.18803-.172-.05759-.0378-.11518-.0436-.15572.023-.00562-.0887-.00843-.2369.08207-.3833.04395-.0731.10696-.1453.17418-.2249.03492-.0401.06924-.0777.11118-.1204.05959-.0605.1216-.1207.18582-.1804.11137-.0473.76134-.621.40254-.1925 1.35131-1.3863-.27291.0982.0588-.3775l-.37686.3883-.33572.355c-.14248.1685-.29759.3022-.36542.4753-.031.0817-.04414.1691-.03853.2563.0056.0871.02982.1721.07104.2493.07565.1506.21732.241.3305.3315l.14769.1141.23198.2002.46013.4064.0008.0474.76977.6764c-.57973-.6019-.43806-.6843.28676.1135l-.09853-.0868c.38869.4795 1.35111 1.3245 2.02455 2.0078l.52676.3938c.67445.6845.58294.8337.73204 1.1256 1.06033 1.0694 1.77672 1.5837 2.59481 2.2788.2904.3932 1.8789 1.9949.9667 1.2163 1.0105.9108 1.0988.4369 2.5956 2.2342l-.48-.3755c1.5915 1.5588 3.9474 3.6966 4.6222 4.4729-.7661-.3974 1.7886 2.1451 1.8903 2.6021-.0373-.1186.5703.4578.6787.5219.109.15.3054.3855.5723.5769-.5805-.6478.6195.2455-.6315-.8528.7194.4701 1.5839 1.1377 2.8844 2.4409l-.0945.0548-1.0112-1.049c.0494.1584-.4786-.3739-.7224-.5652 1.8813 1.9509-.4268-.0761 1.549 1.866.2384.1403.0953.0379.6255.5263-.2428-.236-.3375-.2278.0487.1576l.4317.31c.5619.8054-1.2177-1.0477-.7194-.3791-.8179-.6953-2.1642-1.9694-2.0147-1.6313 1.205 1.2651 1.2941.9297 2.5471 2.2596l.0973.1775c.4836.4251.6231.4329.9124.6413-.0006.0454.098.1777.3843.4749.8661.6687 1.3959 1.1574 2.211 1.7582-1.969-1.7983-1.5428-1.6767-3.5641-3.5439.3369.2727 1.733 1.6138 1.9208 1.5948l-.0933.0564c.6732.5911 1.3459 1.1823 2.1181 1.9975l-.5286-.4408c1.1079.9964 1.6419 1.8552 2.5995 2.5588-.2876-.2986-.5288-.5337-.7218-.7026.5769.5064 1.2513 1.1911 1.8295 1.7899l1.3456 1.0907c-.0477.0263.7245.7975.2916.4853.8232.9303 1.3495 1.2313 1.8765 1.7176.8217.9737-.8159-.7397-1.0076-.7247 1.2068 1.2667 2.5541 2.5423 3.3221 3.1708-.2382-.2663-.3482-.4014-.3173-.4066.0141.0608.5206.5514.7985.8289l.2404.1419.01.0115.0024.003-.0256.0255h-.0004l-.0015.001-.0042.004c-.0038.0042-.0073.0087-.0104.0135-.0004.001.0018-.0039.0002-.0012-.0042.0084.0016-.0049-.0014.0026-.003.0106-.008.0205-.0149.0291-.0022.002-.0118.0152-.0154.0142-.003 0-.006.0006-.0088.0018l-.0071.0027c-.0058-.0029.0014.0114-.0172-.0057.009.0095.0114.0111.0112.0097l.003.0004.0046.002c.0037.0002.0017.0096.0071.0064.0102-.0072.0098.0064.0198-.0048.0113.0044.0239-.0249.0281-.0249.0002-.006.0002-.0094.0012-.0098-.0024 0 .0081.0004-.0042.0018-.0212.0035-.0408.0136-.0558.0289l-.0108.0126c-.0012.0022-.0122.0155.0012.0034l.0995-.0809.0504-.0393.0004-.0002-.073.0656-.0002-.0002-.0002-.0004-.0002-.0004-.0002-.001v-.001c.0008-.0008.004.0006.0102.003.0002-.002.0152.0042.0269.0036.008.0071-.0006.0069.0076.0165.003.0074-.0058.008-.0016.0195l.0004.002.0002.001.0002.0004c.0305-.0277-.0686.0616.0688-.0617l-.0008.0006-.0024.0021-.02.0176-.0398.035-.0806.07-.0091.0077.0026-.0048.0063-.0089c.0062-.0078.014-.0143.0228-.0191s.0185-.0078.0285-.0088c-.0125.0061-.0263.0091-.0402.0087s-.0275-.0041-.0396-.0109c-.0059-.002-.0139-.0016-.0157-.011-.0012-.0013-.0026-.0024-.0043-.0031-.0016-.0008-.0033-.0012-.0051-.0012.0014.0041-.0109-.0082-.0229-.0204l-.0335-.0334-.2537-.251c-.1593-.1554-.2972-.2855-.4053-.3745.2202.2055.4361.4155.6476.6299l.0537.0549c.0077.0058.0077.0032.0109.006.005.0026.0054.0118.0092.0162.0056.0007.0094.0039.0124.0099.0014.0096.0089.0064.0129.0102.005.0016.0078.0127.0138.0133.0115-.0024.0223.0191.0351.015.0075.0021.0145.0057.0207.0103.0064-.002.0132-.002.0197-.0002.0317.0036-.0109.0112-.0109.0387l-.0012.0101c-.0006.0042.0141-.0087.0205-.0123l.05-.0347.0503-.0348.0255-.0178.0127-.0089.0064-.0044.0016-.0012-.0594.0534.0002-.0002.0006-.0008c.0058-.0071.0131-.0129.0213-.0172.0108-.0037.0202-.0091.023-.0185.0378-.0235.0464-.0729.0546-.1259.0069-.0239-.0092-.0649-.0076-.0761.0004.0042.0032.0078.0078.0098.0028.0012.0058.0019.0089.002h.0054c.0024.0002-.008-.0108-.0117-.0156l-.0626-.0763-.0321-.0388-.016-.0199-.0042-.0048.0489.054-.0012-.0012-.0022-.0024-.0092-.009c-.2232-.2197-.4495-.4363-.6787-.6498-.0014-.0476.3839.245-.0024-.1397-.9144-.8721-.3343-.133-.6684-.3573.3602.3277.6132.5783.8185.8046.1025.1131.1932.2201.2797.3277l.1271.1619.0002.0004c.0564.0622-.0769-.0842-.0628-.0691l.0004.0008.0008.0014.0018.0028.0034.0054.0068.0111.0134.0219.0269.0447c.0159.0278.041.0643.0496.0862.0096.009-.0494-.0388-.0991-.0783l-.0382-.03-.0176-.014-.0042-.0034-.001-.0008-.0006-.0004-.0002-.0002-.0002-.0002.0682.0749-.0022-.0014-.0082-.0051-.035-.0224c-.0074-.048-.4396-.4795-.5476-.6259l-.192-.0309c.1404-.0374-.485-.7928-1.0634-1.3008.4862.6108.3408.4598.3891.7092-.8625-.6654-.7703-.9521-1.731-1.7039.093.0357.8643.759.2382.0939-.5323-.5363-.5303-.3965-.9122-.7318.4794.3285.4304.1706.9574.5192.9624.9367.3835.3827 1.3473 1.2752l-.7256-.8449c.8193.7895.672.4986.7667.5363-1.3033-1.4437-1.1516-.9198-2.0193-1.8198-.4786-.3741.8203.8355.0979.2243-.8187-.8343-.2376-.1399-1.2008-1.0323l.1898.1209c-.2406-.3265-.5763-.552-.9132-.8714-.3847-.3372.1525.663-1.3419-.8105.0935.0519.1335.0655.1421.0569l2.0759.824c-1.6664-1.6523-3.3125-3.3246-4.9379-5.0166-.2897-.5293 1.3477 1.1387 1.2958.978l.7722.8161c-.0964.0068-1.6859-1.6421-1.0576-.8369 1.4446 1.3605 2.024 2.0535 3.4658 3.2735-.2928-.5331-1.7804-1.7244-2.5545-2.6804.3568.3699.678.6624.9945.9419l-2.5652-2.6484-.2382-.1779c.6119.6347 1.0341 1.0746 1.0854 1.1342-.8185-.8339-1.5854-1.4611-1.7299-1.4272l.1443.1494-.3277-.2697c-.1872-.1991-.3749-.3976-.5633-.5955zm7.4115-53.5938c-.0419.05857-.0716.10798-.0885.14941.0175-.04323-.0249-.01773.0885-.14941zm-.3032 63.5684 1.6334 1.6711.8069.8268.2001.2042c.0277.0312.0789.0743.1264.1135.0492.0375.0925.0835.1481.1118.2111.1348.4595.195.7054.2012-.2214-.0211-.4351-.0773-.6071-.1935-.0911-.049-.1645-.1181-.2341-.1868-.0791-.0709-.1098-.1235-.1636-.1837l-.5259-.6391c-.3089-.3805-.5242-.66-.585-.7751-.061-.1149.0325-.0657.3411.2114.1544.1384.3625.3338.6318.594.134.1307.2839.2771.4511.4397.0419.0448.0834.0749.1256.1089l.0638.0516.075.0383.0763.0402.0849.0245c.0289.0078.0572.0188.0871.0247l.0923.0084c.001.0125.2588-.0237.2556-.0327-.126.0142-.2801.0215-.435-.0374-.0807-.0182-.1525-.0691-.2284-.1124l-.1039-.0866c-.0363-.0303-.0767-.0755-.1156-.1132-.334-.335-.672-.6659-1.0142-.9927-.509-.3983-1.0212-.7928-1.5363-1.1833l-.7555-.5675c-.1975-.1455-.3227-.2339-.3229-.2241.1451.2422.4826.4701.8211.8361zm-.4908-1.074c-.6071-.6418-.5037-.4612-.636-.5229l.6721.6406c-.0745-.0914-.1034-.1448-.0361-.1177zm-.6336-.4508c.0697.0707.1281.1321.1548.1681zm-.4669-3.2476.0664.0618-.4431-.456c.0544.0651.1646.1831.3767.3942zm1.1859 1.3487.2134.0839-.4156-.4275c.0182.0763.0425.1508.2022.3436zm3.8776 4.2701c.0837.0448.2008.1317.3313.2365l.2039.1673.0523.0438.0263.022.0131.0111.0004.0004c-.0089-.01.0206.0223-.0199-.0219l.0008.0008.0014.0016.003.0032.006.0059.0952.0977c.0395.0362.0455.0555.0594.0761.013.0215.0311.038.0451.0621.0199.0554.0564.1042.0674.153.0131.048.0315.0898.0446.1225.0084.0327.0202.0558.0353.065.0124.034.0291-.0016.0427-.0801l-.0034-.145c-.0068-.055-.0271-.114-.0407-.177-.0139-.0312-.0309-.0601-.0458-.091-.0164-.0305-.0252-.0619-.0559-.0942l-.0787-.0974-.0199-.0245c-.005-.0051-.0101-.0102-.015-.0154l-.045-.0454-.3712-.3765c-.0219.004-.0853-.0349-.1822-.108.243.2634.3907.454.2328.4062-.534-.7677-.6709-.4968-1.3467-1.2287-.2878-.161.724.8424.9634 1.0299zm-20.4847-49.7343c.0277-.0122.117-.0608.2386-.1323l-.4538.5381c-.9072.8622-1.7468 1.4409-2.4357 2.3439-.4017.3438-.6606.4845-.9002.6265.1866-.1783.3626-.3436.5127-.4779 2.0792-2.3849 1.3387-.9909 3.0384-2.8983zm-10.36581 9.9785c.08609-.0964.10434-.1434.10434-.1434-1.82006 2.1321-3.40615 3.8009-4.48194 4.8563.27231-.1412 1.28207-1.0438 1.76448-1.4694l-.3297.4744-.31023.1924-.63371.7626c.24582-.1452.80147-.7174 1.21806-1.055.01866-.0466 1.14401-1.3352 1.43699-1.7166l-1.0192.9102c.28214-.2391 1.54917-1.5308 2.0394-2.0551-.02709-.0468-.9618.7676-.9917.9572-.15934.049.85164-.9558.1529-.3793.69934-.811 1.95452-1.9596 2.54148-2.4881l.18723-.0024c.64996-.5738.30341-.5226 1.08642-1.1935-.87873.9082.25304-.0498-.45331.6652.26267-.1915.10234.0924.8103-.624.4726-.7124.8302-.6717 1.2847-1.3375.414-.3351-.3307.4747.4252-.2432.7838-.9058.6887-.903.6522-1.0439-.8182.7626-.7752.9999-1.4456 1.6222l1.1376-1.4323c-.2593.2145-.4377.387-.5792.5396.2505-.2661.4481-.5072.6054-.7253l.2527-.3407c-.7321.7252-1.3836 1.3678-1.5363 1.4441l.0575-.143c-.2985.2177-.68945.6676-.85239.8921-.64997.6548-1.24375 1.3638-1.44282 1.4502l.2091-.286c-.79344.8117-.87772.9062-1.8899 1.9122zm15.13251 26.8101c-.3293-.6415-.7273-1.3144-3.0314-3.5468l.1901.1669c-1.0477-1.2377-2.3683-2.0899-3.6536-3.5852.7371.6132.6951.5823 1.5795 1.1891l-.7714-.6769c.2876.1143-.4818-.561-1.011-1.0943l.5731.3654c.2906.3468 1.1095 1.1811 1.1085 1.1337-.193-.1691.9658 1.216 1.6893 1.875-.002-.1401-1.4948-1.566-.7273-1.0296-.624-.5251-.6263-.6649-1.2531-1.2388.6254.5265.2377.0478.7188.4247l-1.0118-.9574c-.0026-.0486 1.4903 1.3773.7661.4888-.4322-.3568-1.4436-1.4516-1.5373-1.396l-.0014-.0471c-.7242-.7512-.4316-.2183-1.2983-1.1634-.0484.0267.0991.2248.4326.5405.292.2568.3857.2476.9632.8002.1959.3106-.6768-.6862-.382-.197.1462.2431 1.5397 1.4441 1.0137 1.1427l-.723-.7498c-.0939.0555-.6249-.4801-.6704-.4052-.4796-.4214-.8218-.9286-1.3487-1.3224-.24-.1422.0046.2795-.72-.5178-.4858-.7024-2.2662-2.4269-2.94062-3.0652l-.62428-.5247c.00301.0944 1.1077 1.0871.67766.7789l-.91686-.8746.09813.0403c-.29157-.3022-.62709-.5738-.91546-.8271.33392.2243.96021.889.90944.6838-.40656-.4342-.44187-.5269-.84522-.8974.0903.0787.17097.1434.17117.1219-.82054-.8817-.91224-.7325-1.15184-.9197-.96061-.7519.77157.9528.58134.9237l-2.55071-2.4469c.2396.1874.4804.3767.43164.2645-.57913-.6464.04656-.0739-.82074-.9275-.04515.167-1.15385-1.0136-1.82569-1.5578-.2414-.3265-.29117-.3935.33352.2241.001-.1365-.87292-.9512-1.14964-1.2383-.03632-.0293-.07192-.0594-.10675-.0904-.08168-.0726-.18964-.1556-.28174-.2544-.04616-.0494-.09532-.0973-.12502-.1544-.03391-.0544-.07084-.1048-.08709-.157.0309.1649.04415.2143-.0285.1428-.01565-.0189-.04133-.0436-.0606-.0811-.01806-.0378-.03873-.085-.06221-.1418-.02428-.0566-.02849-.1275-.04454-.2064-.00681-.0897-.00331-.1799.01043-.2689l-.00722-.0478c-.0602.2072-.06944.4558.01505.6916.07906.2409.26889.4279.44829.6264l.54662.5737.50308.5154c.32188.3227.60964.594.82074.7562l-.19144-.1218c.96542 1.0772 2.35546 2.0914 2.6974 2.6906-.09552.0082.19404.2163.10133.2727l.81332.6915-.19084-.1221 1.30094 1.258-.04796-.0199 1.63867 1.2926c.03411-.031.00441-.0802.23197.0976.17943.1501.35013.3101.51133.4794.0012.0008.0012.0007.0014.0005l-.0004.0004c.3054.3222.4685.5772.8374.9814l-1.20204-1.1774c-.15271-.0414-.10876.1164.43764.7357-.2414-.2357-.3847-.292-.0949.0084.047.0179.8177.7416.5763.4139 1.1545 1.1061 2.8453 3.0735 4.6728 4.6785-1.3005-1.1656.9173 1.0582-.479-.2829.8701 1.0399.9123.7323 1.8759 1.7162.0513.1144-.528-.5324-.8154-.693 1.5893 1.6483 2.8849 2.5796 4.43 4.1669l-.002.1355c.307.2866.6472.6052 1.001.9361zm3.1958 3.0015.945.8908-.0883-.0918.9648.847c-.5316-.5812-.8236-1.0219-.0064-.281-.0945-.0371.0991.2247-.1895-.0287.4824.5612 1.5915 1.7421 1.3963 1.3409-1.1053-.9013-.1015-.365-.9658-1.0776.4926.3538.8823.8019 1.3136 1.1696-.4742-.3578-.0318.2247.5678.874.2896.2541 1.0122 1.0032 1.493 1.4259-.0977-.2239.3335.1317-.3891-.6178.4106.3598.7974.7456 1.1579 1.1549-.1973-.1741-.531-.4897-.5316-.4443.2446.3594.6022.7094.7732.9288l.4776.4538c-.0401-.0512-.0725-.0977-.0917-.1349l.5755.4596c-.7216-.6568-.29-.3467-.2438-.3749-.0933.0557.4356.4516.6746.6841l-.4352-.5889c.2883.2074.8205.9279.7689.7213-1.0595-1.1144-1.4925-1.5172-2.5027-2.4734l.3389.4586c-1.1566-1.062-.5811-.7861-1.8333-2.023-.5753-.46-1.8823-1.861-2.0203-1.7752.1908.1216-.6779-.8711-1.1567-1.2456-.5757-.3678-2.0203-1.7742-1.6338-1.2977.3853.3851.962.8455 1.2058 1.2204l-.7712-.7232.4361.5439c-.2342-.2721-.2643-.1934-.2296.0044zm11.3759 6.7574-.0274-.0301.0317.0323z"/><path d="m27.2302 9.86422c.1876-.23776.7182-.7598.5607-.7109.0727.04692-.9312.94888-.5607.7109zm.6879-.57074c.0228-.05128-.0257-.04831.2085-.28646l-.6353.66498zm1.068-.25162c.2911-.37951.4783-.61707 1.0089-1.13892.3434-.05207-.8213.90175-.9239 1.27591.9786-.95045 1.1476-1.37351 1.9289-2.17885-.4539.33219-2.0955 1.90229-2.0139 2.04186zm-.2447.61212.5039-.56896-.0615.04434-.5042.56936zm-12.8884 10.34922c-.0939.0028-.3836.3817-.5518.572.1488-.143.3649-.3348.5518-.572zm6.6212-.5491 4.0498-4.134zm-19.90791 14.4189c1.05628-1.1411 1.46604-1.7073 2.56611-2.8462-1.56452 1.3798-1.80189 2.0866-3.1324 3.2281zm.02457-.7499c.26788-.0964-.74759.9477-.52527.8511.71984-.761.26333-.4263.94295-1.0906zm6.39794-3.5611-.28869.3777.25204-.2844zm-6.49305 10.5098-.14088-.1021.52408.5778zm-.28195-.2039.14107.1018zm6.5307-9.6942.51377-.4767.20548-.2841zm-4.83225 3.9092.4157-.4702c-.08262.093-.724.6636-.4157.4702zm1.91304 9.3883.57204.5058-.04657-.0634-.57024-.5042zm-3.61447-6.2844c-.02793-.0722.022-.041.08481.0125l.09669.0871.13037.1217c.03706.0329.05489.0454.04023.0206-.01501-.0228-.03122-.0448-.04855-.0659-.021-.0283-.0745-.0899-.0848-.1097l-.09233-.0821c-.17674-.1485-.13196-.0446-.12642.0158zm5.9236 6.8114c.07272.0726.15158.1469.23282.2134zm0 0c-.23479-.2346-.44443-.4944-.62454-.6363.26294.3225.38083.4177.62454.6363zm2.70558 2.6726-.2082-.2176c.25.1849.142.0867-.0783-.0812-.2278-.2233-.236-.1896-.277-.2021l-.1644-.113.2088.1609c.3489.3498.5655.5599.5191.453zm8.8829 11.0946c-.7619-.8103-.9535-1.0253-.8594-1.0338-.7301-.7622-.7024-.5583-1.173-.9877.8544.8339 1.0034 1.03 2.0324 2.0215zm-2.0326-2.0215-.2988-.2904c.0969.0996.1965.1965.2988.2904zm-9.43541-12.7734.56708.41-.19022-.1683zm12.60921 15.9865c-.1426-.1491-.3786-.3803-.4759-.5126-.0933.0093.6182.661.4759.5126zm-2.0297-4.0323c-.0486-.1111-.5703-.5949-.7632-.8117.2873.3002.4323.6335.7632.8117zm4.4966 6.0753c-.1425-.1491-.3323-.4074-.1928-.3528-.237-.1865-.614-.3827.1928.3528zm-3.0688-4.6301-.0949-.1297-.5709-.5048zm-1.1639-2.6726c-.6661-.5436.8128 1.1064-.2811.1166 1.2805 1.4072-.0167-.1895.9653.8117-.5603-.6013-.7678-.9628-.6842-.9283z"/><path d="m19.9167 55.0387c.0833.0878.1751.1816.2767.2815zm8.3364 8.945c-.0746-.0635-.1512-.1247-.2297-.1835.0762.0643.1503.1244.2297.1835zm-5.0372-5.8134-1.024-.8191c.6837.5474 2.2428 2.0825 2.2388 1.8952-.487-.5144-1.1208-1.0869-1.4112-1.2923zm8.9779 12.1223-.4388-.3575.4908.5022c-.1298-.1544.1989.0331-.052-.1447zm.1471.2419-.0951-.097c.0191.0233.049.0542.0951.097zm-5.8921-8.23c-.2937-.301-.5366-.5341-.8273-.7861.0958.1286.828.8784.8273.7861zm8.7107 10.6272-.6793-.6342.7304.7025zm3.8405-2.9582-.0969-.1293-.5834-.506.0987.1311zm-3.1115.3765c-.4396-.4503-.8749-.7121-.7748-.5793l.8756.8504c-.1481-.2891-.244-.2349-.7309-.7483zm-19.9952-22.7496c.244.1427 1.1689 1.1049 1.1723 1.1995-.1484-.1055-.6847-.5932-.3896-.2459l.8749.6211c.9284 1.057-.9212-.5922-1.4593-1.0359 1.0068 1.0168 1.3889 1.2362 2.4759 2.3021-.225-.2345-.4342-.4831-.6261-.7443.0479-.1194 1.0236.9103 1.7545 1.6134-.4242-.4879-.1264-.257.2429.0394.0632.0567.1081.0914.1424.1137l.126.1001-.0869-.085c.0156-.0034.0081-.0335-.0388-.1103-.6326-.5713-1.0263-1.0964-1.4167-1.4808.2486.5142-1.3643-1.2743-1.899-1.7148l-.5816-.5433-.2127-.208c-.0276-.0567.0518-.0161.4033.2747-.2976-.2383-1.1898-1.1314-1.151-1.0062l-2.06-2.0147c-.0546-.062-.1056-.1268-.153-.1943-.08-.0615-.0991-.066-.0967-.0499-2.5214-2.4653-5.04273-4.9305-7.5584-7.3956l.02966-.0354c-.01768.0113-.0386.0229-.06217.0354.0061.0337.01402.0797.0512.1376-.11397-.0217-.09446.0054-.04652.0591l.01706.0195c.00813.009.00122.0034.04266.0454.06054.0623.11721.1216.1615.1716.08877.0999.12919.1618.05728.1339-.08471-.0676-.17592-.1465-.26875-.2313-.06155-.0571-.05526-.0489-.07151-.0637l-.03595-.0344c-.04612-.0474-.08126-.0969-.09609-.1322-.04774-.0041-.065.0197-.07516.0524-.01097.0316-.01463.0726-.05891.0806.03814.05.08004.0971.12534.1409.01137.0104.16454.1535.25595.2319.20395.1776.38617.3169.56839.4547.36422.2757.72825.5452 1.26515 1.1026-.09629.0085-.48388-.2815.24681.4206l-.19522-.1692c1.21741 1.0779.78412 1.0008 1.65741 1.5747l-.09486.0553c.5828.4593 1.60583 1.4609 2.19243 2.0153l-.0489-.0193c1.7033 1.4991.9259.8713 2.7775 2.6146l-.9239-.7321c.5897.6493.827.6935 1.2668 1.1437-.0467-.0173.002.1392-.4363-.2633l2.3375 2.0266c.5826.4596-.0512-.1587-.1008-.2705zm2.674 2.8409c.1304.137.2647.2704.4026.4001z"/><path d="m6.0638 36-.0638.0648c.02662-.0156.04863-.038.0638-.0648zm16.4983 16.7319c-.3441-.4198.3419.2308.4379.2681l-1.3741-1.3633c-.0231.0352-.1918-.0673-.191-.0132z"/><path d="m20.6665 52.2986c-.0649-.026-.2229-.1525-.3973-.2975l.7283.7485c.0167-.0266-.0454-.1306-.331-.451zm-1.3715 1.7014-.2377-.2396-.3776-.3436zm-3.5532-3.9144c.2379.3334.8034.8484.9926 1.0206-.6157-.6309-.3332-.3737-.9926-1.0206zm.2984 1.2551-.6162-.5844.0467.0656zm-6.0402-19.0379.2844-.3028c-.0969.0987-.1918.1997-.2844.3028z"/><path d="m5 35.86c.20577-.1412.21135-.1119.19101-.0616-.02353.0535-.08414.1395-.07816.178.05723.0267.0995.0307.13379.0122-.00622-.0035-.01209-.0076-.01754-.0122.01485-.0405.03285-.0798.05383-.1176l.03031.0266.0652-.0736.41931-.4228c-.24345.1434-.3924.2844-.40177.1917 1.28466-1.2273.45979-.3329 1.45255-1.1838l1.40409-1.4033-.0989.128c.11784-.1186.1641-.1766.1964-.2253l4.73128-4.7297c.8257-.8949-.572.3813-.0086-.3239-1.0043.991-2.5515 2.409-2.5342 2.5945.0195-.0472.0576-.1408-.1581.0481l-.49629.6563.58079-.5198c-.49984.6592-2.40499 2.5012-2.79838 2.786 1.04399-1.0863.40416-.6555 1.9538-2.0751-.09311.0405-.41253.2653-.09052-.0808-.86056.8782-1.6948 1.6927-2.52984 2.5222-.42214.4184-.84094.8401-1.25634 1.2651l-.31643.3268-.15891.1656-.07677.0806-.02353.0285c-.06201.0755-.11943.1497-.16808.2193zm16.9813-16.8459-.0046.0228c.0267-.0359.0333-.0497.0046-.0228zm-.6004.5672-.7527.9411 1.3226-1.3203.0259-.165c-.0997.1338-.5304.6291-.7389.7803zm-1.6828 1.9785c.6572-.7074.5368-.7526.124-.4203.5924-.6603.4223-.2401.7691-.7553-.0742-.045-.8167.7567-.9846.9439zm-5.1141 4.9575.1589-.2245-.4853.4603zm.1589-.2245.4819-.4569c-.0582.0069-.1156.0142-.2101.073zm1.7458-1.6564c.2373-.2201.4719-.4428.7039-.6683zm-.5616.512.0269-.0051.5347-.5069z"/><path d="m15.0734 26.7627c.1312-.0189.2781-.0482.9266-.7627l-.2178.0456zm-3.7454 20.1701-.5573-.5184.0468.0677.5572.5179zm-2.97914-3.2398c-.11423-.103-.23054-.2034-.34886-.3012.14284.1373.26107.2415.34886.3012z"/><path d="m5.52103 41.2985c-.57368-.6994.94893.8055-.19546-.4067-.04896-.1593.56972.3256 1.09365.9113-.09496.0074-.56972-.511-.28288-.1149.42501.3111.52393.4929.47338.2858.66368.5751.78698.5893 1.255.9619-.77825-.7199-2.26202-2.3834-3.30531-3.2404-.61333-.4339-.42362.0138-.55941.1472.04678.1113 1.38167 1.494 1.52103 1.4558zm.86112 1.1429c.28585.3029.3806.3883.5711.5586-.00277-.0952-.33283-.3212-.5711-.5586zm-.93407-8.1099c.03687-.0757.54236-.6359.39587-.554l-.77826.8372c.19129-.1876.2809-.2314.38239-.2832zm-.72414.6502.34155-.367c-.0896.0876-.19585.2003-.34155.367zm.7739-.6769-.04976.0267c-.00733.0155-.00119.0175.04976-.0267zm12.83806-10.9326c.0254.0486.361-.3358.5295-.5286-.1489.1448-.3658.34-.5295.5286zm13.3134-13.78233.345-.29044c-.1291.09561-.1949.14482-.345.29044zm3.8655-5.94624c.0022-.01667.0195-.0462.0454-.08376-.0269.03636-.0428.06468-.0454.08376zm.0454-.08396c.1854-.24946.899-.87655 1.0921-1.16619l-.0163.0452.2094-.23983.0767-.08798c.0117-.01365.026-.02872.0337-.03936.0045-.00817.0091-.01627.0139-.02431l.0303-.0472c-.0222.04359-.1895.20869-.3259.34889l-.448.46218c-.2971.31033-.5671.60358-.6659.7486z"/></g></svg>