<svg fill="none" height="31" viewBox="0 0 60 31" width="60" xmlns="http://www.w3.org/2000/svg"><path d="m12.2193.5c-6.14609 0-12.2193 4.11108-12.2193 10.7648 0 4.2313 2.37197 6.6354 3.80953 6.6354.59324 0 .93442-1.6588.93442-2.1272 0-.5587-1.41935-1.7492-1.41935-4.0755 0-4.83229 3.66577-8.25868 8.4097-8.25868 4.0789 0 7.0977 2.32625 7.0977 6.59988 0 3.1917-1.2756 9.178-5.409 9.178-1.4913 0-2.7678-1.0818-2.7678-2.632 0-2.2724 1.5813-4.4717 1.5813-6.81625 0-3.97837-5.62468-3.25713-5.62468 1.55115 0 1.0097.12554 2.1272.57502 3.0475-.82708 3.5706-2.51573 8.8896-2.51573 12.5679 0 1.1357.16197 2.2541.2693 3.3898.20318.2289.10159.2049.41306.0904 3.01888-4.1476 2.91154-4.9583 4.27722-10.3859.73701 1.4069 2.64131 2.1638 4.15071 2.1638 6.3607 0 9.2186-6.221 9.2186-11.8284 0-5.96807-5.1398-9.862777-10.7817-9.862777z" fill="#f8f1ea"/></svg>