<svg fill="none" height="33" viewBox="0 0 61 33" width="61" xmlns="http://www.w3.org/2000/svg"><path d="m37 1.51681s-3.3022 1.9929-5.1382 2.55801c-.9855-1.15778-2.2953-1.97837-3.7521-2.35082-1.4569-.37244-2.9905-.27875-4.3936.26839-1.403.54714-2.6077 1.52134-3.4512 2.79084-.8435 1.26949-1.285 2.77304-1.2649 4.30728v1.67189c-2.8757.0762-5.7252-.5754-8.2947-1.89685-2.56954-1.32141-4.77933-3.27159-6.43257-5.67684 0 0-6.54546 15.04709 8.18177 21.73469-3.37 2.3372-7.38461 3.5092-11.4545 3.3438 14.7273 8.3595 32.7273 0 32.7273-19.22685 0-.46479-.0458-.92957-.1309-1.38767 1.6691-1.68193 3.4036-6.13587 3.4036-6.13587z" stroke="#f16a50" stroke-linecap="round" stroke-linejoin="round" stroke-width="2"/></svg>