<svg fill="none" height="33" viewBox="0 0 61 33" width="61" xmlns="http://www.w3.org/2000/svg"><g stroke="#f8f1ea" stroke-linecap="round" stroke-linejoin="round" stroke-width="2"><path d="m40.112 6.19136c-.2279-.90867-.6742-1.73716-1.2942-2.40254-.62-.66539-1.392-1.14432-2.2388-1.38888-2.314-.95939-24.7318-1.429424-31.23578.02683-.84685.24465-1.61894.72375-2.23898 1.38933-.62005.66559-1.06627 1.4943-1.294 2.40316-1.044994 4.91824-1.123993 15.55094.026 20.57964.22788.9087.67418 1.7372 1.29421 2.4026.62003.6653 1.39204 1.1443 2.23877 1.3888 4.58297 1.1322 26.37088 1.291 31.23578 0 .8468-.2445 1.6188-.7235 2.2388-1.3888.62-.6654 1.0663-1.4939 1.2942-2.4026 1.114-5.3582 1.193-15.332-.026-20.60754z"/><path d="m27 17-10-6.5v13z"/></g></svg>