<svg fill="none" height="40" viewBox="0 0 40 40" width="40" xmlns="http://www.w3.org/2000/svg"><path d="m23.7188 21h-2.3438v7h-3.125v-7h-2.5312v-2.9062h2.5312v-2.1876c0-.8333.1562-1.5416.4688-2.125.3124-.5833.75-1.0208 1.3124-1.3124.5834-.3126 1.25-.4688 2-.4688.3334 0 .6876.0208 1.0626.0625.375.0208.6666.0521.875.0937l.3124.0313v2.4687h-1.25c-.5833 0-1.0104.1563-1.2812.4688-.25.2917-.375.6562-.375 1.0938v1.875h2.7812z" fill="#fff"/><circle cx="20" cy="20" opacity=".4" r="19.5" stroke="#fff"/></svg>