<svg fill="none" height="40" viewBox="0 0 40 40" width="40" xmlns="http://www.w3.org/2000/svg"><path d="m17.4688 17.4688c.7083-.7084 1.5624-1.0626 2.5624-1.0626s1.8438.3542 2.5313 1.0626c.7083.6874 1.0625 1.5312 1.0625 2.5312s-.3542 1.8542-1.0625 2.5625c-.6875.6875-1.5313 1.0313-2.5313 1.0313s-1.8541-.3438-2.5624-1.0313c-.6876-.7083-1.0313-1.5625-1.0313-2.5625s.3437-1.8438 1.0313-2.5312zm.9062 4.1874c.4583.4584 1.0104.6876 1.6562.6876.6459 0 1.198-.2292 1.6563-.6876.4583-.4583.6875-1.0104.6875-1.6562s-.2292-1.1979-.6875-1.6562c-.4583-.4584-1.0104-.6876-1.6563-.6876-.6458 0-1.1979.2292-1.6562.6876-.4583.4583-.6875 1.0104-.6875 1.6562s.2292 1.1979.6875 1.6562zm5.9688-5.9687c.1666.1458.25.3333.25.5625s-.0834.4271-.25.5938c-.1459.1666-.3334.25-.5626.25-.2291 0-.427-.0834-.5937-.25-.1667-.1667-.25-.3646-.25-.5938s.0833-.4167.25-.5625c.1667-.1667.3646-.25.5937-.25.2292 0 .4167.0833.5626.25zm2.6562 1.4375c.0208.5625.0312 1.5208.0312 2.875s-.0104 2.3125-.0312 2.875c-.0625 1.2708-.4479 2.2604-1.1562 2.9688-.6876.6874-1.6667 1.052-2.9376 1.0937-.5624.0417-1.5208.0625-2.875.0625-1.3541 0-2.3124-.0208-2.875-.0625-1.2708-.0625-2.25-.4375-2.9374-1.125-.2709-.25-.4896-.5417-.6563-.875s-.2917-.6563-.375-.9687c-.0625-.3126-.0937-.6771-.0937-1.0938-.0417-.5625-.0626-1.5208-.0626-2.875s.0209-2.3229.0626-2.9062c.0624-1.25.4374-2.2188 1.125-2.9063.6874-.7083 1.6666-1.0937 2.9374-1.1563.5626-.0208 1.5209-.0312 2.875-.0312 1.3542 0 2.3126.0104 2.875.0312 1.2709.0626 2.25.448 2.9376 1.1563.7083.6875 1.0937 1.6667 1.1562 2.9375zm-1.5 7c.0625-.1667.1146-.375.1562-.625.0417-.2708.073-.5833.0938-.9375.0208-.375.0312-.6771.0312-.9063 0-.2291 0-.552 0-.9687s0-.6458 0-.6875c0-.0625 0-.2917 0-.6875 0-.4167 0-.7396 0-.9687 0-.2292-.0104-.5209-.0312-.875-.0208-.375-.0521-.6876-.0938-.9376-.0416-.2708-.0937-.4895-.1562-.6562-.25-.6458-.6979-1.0938-1.3438-1.3438-.1666-.0624-.3854-.1145-.6562-.1562-.25-.0417-.5625-.0729-.9375-.0938-.3542-.0208-.6458-.0312-.875-.0312-.2083 0-.5313 0-.9687 0-.4167 0-.6459 0-.6876 0-.0416 0-.2708 0-.6874 0-.4167 0-.7396 0-.9688 0s-.5312.0104-.9062.0312c-.3542.0209-.6667.0521-.9376.0938-.25.0417-.4583.0938-.625.1562-.6458.25-1.0937.698-1.3437 1.3438-.0625.1667-.1146.3854-.1563.6562-.0416.25-.0729.5626-.0937.9376-.0208.3541-.0313.6458-.0313.875v.9687.6875.5938.75.75c.0209.3124.0417.5833.0626.8124.0208.2084.052.4271.0937.6563s.0833.4167.125.5625c.2708.6458.7187 1.0938 1.3437 1.3438.1667.0624.375.1145.625.1562.2709.0417.5834.0729.9376.0938.375.0208.6666.0312.875.0312h.9687.7187.6876.9687c.2292 0 .5208-.0104.875-.0312.375-.0209.6875-.0521.9375-.0938.2708-.0417.4896-.0938.6562-.1562.6459-.2709 1.0938-.7188 1.3438-1.3438z" fill="#fff"/><circle cx="20" cy="20" opacity=".4" r="19.5" stroke="#fff"/></svg>