<svg fill="none" height="40" viewBox="0 0 40 40" width="40" xmlns="http://www.w3.org/2000/svg"><path d="m26.3438 16.75c.0208.0833.0312.2188.0312.4062 0 1.1042-.2083 2.2084-.625 3.3126-.4167 1.0833-1.0104 2.0833-1.7812 3-.75.8958-1.7292 1.625-2.9376 2.1874-1.2083.5626-2.5416.8438-4 .8438-1.8333 0-3.5104-.4896-5.0312-1.4688.2292.0209.4896.0313.7812.0313 1.5209 0 2.8855-.4687 4.0938-1.4063-.7292 0-1.375-.2083-1.9375-.625-.5417-.4374-.9167-.9791-1.125-1.625.2083.0209.4063.0313.5937.0313.2917 0 .5834-.0313.875-.0937-.5-.1042-.9479-.3126-1.3437-.625-.3958-.3126-.7083-.6876-.9375-1.125-.2292-.4584-.3438-.948-.3438-1.4688v-.0625c.4584.2708.948.4167 1.4688.4375-.9792-.6667-1.4688-1.5833-1.4688-2.75 0-.5833.1563-1.1354.4688-1.6562.8125 1.0208 1.8021 1.8333 2.9688 2.4374 1.1874.6042 2.4479.9376 3.7812 1-.0417-.25-.0625-.5-.0625-.75 0-.8958.3125-1.6666.9375-2.3124.6458-.6459 1.4167-.9688 2.3125-.9688.9583 0 1.7604.3438 2.4063 1.0312.75-.1458 1.4479-.4062 2.0937-.7812-.25.7708-.7292 1.375-1.4375 1.8125.625-.0833 1.25-.2604 1.875-.5313-.4583.6667-1.0104 1.2396-1.6562 1.7188z" fill="#fff"/><circle cx="20" cy="20" opacity=".4" r="19.5" stroke="#fff"/></svg>